<svg id="svg" xmlns="http://www.w3.org/2000/svg" viewBox="0 0 168.23 256.88"><defs><style>.cls-1{fill:#9babeb;}.cls-1,.cls-2{fill-rule:evenodd;}.cls-2{fill:#92a0c9;}</style></defs><g id="svgg"><path id="path0" class="cls-1" d="M199.14,78.27a8.36,8.36,0,0,0-4.6,6.74c0,1.17-.1,1.24-1.86,1.5-17.79,2.55-41.82,10.23-49.84,15.92-4,2.85-6,5.79-8.67,12.87-.76,2-1.62,4.09-1.9,4.62-2.6,4.83-7.63,36.07-8.78,54.53a16.67,16.67,0,0,1-.68,4.5c-1.64,2.05-4.43,15.69-4.44,21.75,0,3.4,2.69,7.89,4.75,7.89.24,0,.14.33-.23.74-2,2.24-3,10.58-1.65,13.85,1.43,3.43,4.2,5.3,8.43,5.69l2.52.23.5,3.52c1.07,7.55,5.22,12.69,12.16,15.08,3.71,1.28,34.43,1.11,38.32-.2,7.83-2.65,11.44-7.14,14.12-17.57,2-7.59,3.25-9.23,7.31-9.23s5.53,1.6,7.3,8.76c2.59,10.45,6.43,15.34,14.21,18.06,3.06,1.07,20.68,1.41,22,.42a2.86,2.86,0,0,0-.16-4.91c-.52-.26-4.4-.48-10-.56-15.35-.23-17.34-1.87-20.92-17.21-3.24-13.92-4.82-13.15,27.17-13.15,26.4,0,26.06,0,27.62,2.2,1.3,1.87,1.29,2.68-.09,11.71-1.94,12.63-3.76,15.45-10.54,16.35-3.53.47-5.15,2.14-4.07,4.18,3,5.57,16.3-1.46,18.74-9.9.63-2.17,2.78-16,2.76-17.81,0-4.09-1.92-8.44-4.45-10.3-1.7-1.24-1-1.29,1.36-.09,3.65,1.86,9-.23,10.61-4.17,1.54-3.68-.6-18.62-3.61-25.15-.49-1.07-.89-3.4-1.2-7.06-2-23.64-5.44-45.06-8-50.78-.29-.65-1.17-2.93-2-5.08-2.79-7.6-4.93-10.87-9-13.78s-5.74-3.62-17.9-8.1c-6.41-2.36-20.91-5.94-31-7.65-2.75-.46-2.83-.51-2.83-1.6,0-5.15-6.46-9-11.41-6.81m4.93,5.55c1.22,1.21.77,1.73-1.53,1.73-1.6,0-2.15-.15-2.15-.56a2.23,2.23,0,0,1,2.15-1.79,2.47,2.47,0,0,1,1.53.62M199.66,93c-.27,4,1.19,6.26,3.66,5.64,1.43-.36,2.25-2.46,2.08-5.37L205.27,91l1.18.18c6.71,1,11.54,1.94,12.55,2.4a6.41,6.41,0,0,0,2,.55c2.57,0,22,5.43,26.18,7.33,3.33,1.5,6.56,13.22,10.09,36.62.89,5.89,2.84,29.88,2.42,29.88a8.08,8.08,0,0,1-1.34-.58c-4.67-2.33-23-6-36.79-7.44-3.08-.32-5.73-.65-5.89-.75a42.3,42.3,0,0,0-5.23-.24l-4.94-.06-.11-26.67c-.12-29.86,0-28.32-2.84-28.32s-2.72-1.54-2.84,28.32l-.11,26.67-4.94.06a42.3,42.3,0,0,0-5.23.24c-.16.1-2.81.43-5.89.75-13.82,1.41-32.12,5.11-36.8,7.45-.63.31-1.24.48-1.35.37-.61-.6,2.62-34.5,3.45-36.32a36.59,36.59,0,0,0,1-5.08c1.57-10.57,6-25.77,7.13-24.62.11.11.39,0,.62-.13,1.59-1.2,23.83-7.48,26.52-7.48a5.92,5.92,0,0,0,2-.57,39.18,39.18,0,0,1,6.12-1.35c5.21-.84,6.6-1.07,7.22-1.15.24,0,.34.76.25,2M148.6,106.19c-2.13,4.27-5.59,23-7,37.95-.34,3.55-.78,7-1,7.62a98,98,0,0,0-.83,9.79l-.47,8.63-2.77,1.06c-1.52.58-3.78,1.55-5,2.15-1.58.77-2.24.93-2.24.57,0-2.08,1.72-19.23,2.32-23.18,4.19-27.35,8.48-40,15-44.2,2.78-1.79,2.67-1.77,2-.39m111.93,2c5.31,5.3,9.1,18,13.13,43.93.44,2.83,2.11,20.12,2.12,21.95,0,.34-.3.31-1.07-.12-.59-.32-2.83-1.34-5-2.25l-3.91-1.67-.48-6.61c-.26-3.64-.57-7.23-.67-8s-.57-5.06-1-9.57c-1.74-17.63-5.19-36.49-7.2-39.36a3.43,3.43,0,0,1-.6-1.18c0-.57,3.22,1.4,4.67,2.86m-18.12,2c-1.52,2.57,1,9.71,3.41,9.71,2.94,0,3.54-1.92,2-6.48-1.66-4.92-3.7-6.14-5.42-3.23m3.74,15.21c-1.11,1.19-1.15,2-.39,7.39.37,2.69,1,7.79,1.31,11.33.7,7.17,1.28,9.08,3,9.79a2.49,2.49,0,0,0,3.33-1.83c.42-1.67-1.62-21-2.63-24.84-.64-2.48-3.08-3.46-4.59-1.84m-28,39.85c8.27.61,18.19,2,19.14,2.71a9,9,0,0,0,2.28.55c6.14.89,24.66,6.4,25.65,7.63a10.44,10.44,0,0,0,2.15,1c5.39,2,10,4.46,10.39,5.56a86.34,86.34,0,0,1,2.11,8.87l.26,1.53-1-.66c-.55-.36-1-.53-1-.36s-.14.1-.29-.14c-.5-.77-6.21-3-17.67-6.78-33.46-11.15-81.83-11.15-115.24,0-11.5,3.84-17.17,6-17.67,6.78-.16.24-.29.31-.29.14s-.46,0-1,.36l-1,.66.26-1.53a81.34,81.34,0,0,1,2.12-8.88c.42-1.1,5-3.57,10.38-5.56a10.16,10.16,0,0,0,2.14-1c1-1.23,19.52-6.74,25.66-7.63a8.72,8.72,0,0,0,2.27-.55c3.32-2.41,33.08-4,50.39-2.71m-.39,17.57a95.62,95.62,0,0,1,13.09,1.55c1,.2,3.87.73,6.44,1.17,9.44,1.64,24.11,5.38,26.74,6.83.55.31,3.55,1.54,6.66,2.76,10,3.91,11.89,5.41,9.55,7.75-1,1-6.82-.57-8-2.13-.19-.25-3-1.35-9.18-3.64-1.51-.56-5.29-1.73-8.4-2.61s-6-1.76-6.45-2c-6.71-2.89-35.54-5.88-51.17-5.29-14.66.55-37.48,3.5-40.18,5.2-.24.15-3.26,1.1-6.69,2.11-8.08,2.37-16.81,5.46-17.39,6.15-1.47,1.77-6.89,3.13-8.14,2-2.53-2.19.12-4.14,11.27-8.29,2.25-.84,4.55-1.78,5.1-2.09,2.53-1.44,17.21-5.2,26.73-6.85,2.58-.44,5.48-1,6.45-1.17,9.59-2,27.39-2.63,43.55-1.55m-1.36,10.71c14.29,1,28.54,3.53,37.5,6.54,1.39.47,2.62.88,2.73.9s.55.2,1,.37c.72.29,3.23,1.22,9,3.3,3,1.1,5.72,2.53,3.91,2.08-.65-.16-12.69-.29-26.76-.29H218.16l-2.23,1.09a11.46,11.46,0,0,0-5.69,6.23c-.49,1.37-.82,1.8-1.25,1.63a17.25,17.25,0,0,0-2.45-.53,15.15,15.15,0,0,0-6.15.53c-.44.17-.77-.26-1.26-1.63-1.89-5.34-5.49-7.27-13.93-7.46-6.47-.14-7.43.06-8.2,1.76-1.42,3.12.17,4,7,4,7.2,0,9.05.82,9.92,4.39.36,1.5-3,15.91-4.36,18.6a15.65,15.65,0,0,1-7,6.5c-2.29.93-31.51,1.41-35.52.58-4.38-.91-7.23-4.18-8.32-9.58l-.71-3.5,2.53-.26a9.67,9.67,0,0,0,4.47-1.47l1.93-1.2h9.75c10.95,0,11.62-.13,13.48-2.56l1.13-1.48v-6c0-10.09.86-9.67-20-9.92l-16.28-.2,2.15-.86c1.18-.48,3.91-1.49,6-2.26s4.17-1.5,4.5-1.63.67-.28.78-.31,1.33-.43,2.73-.9c16.23-5.45,43.18-8.16,65.24-6.54m-74,19.51c.94,1.29.77,8.21-.22,9.21-1.23,1.22-13.57,1.19-14.69,0-1.32-1.47-1.32-7.82,0-9.15l1-1,6.67.12c6.06.11,6.71.19,7.21.88m23,3.15v4.1H148.88l-.12-4.1-.13-4.1h16.8v4.1m-31.72-1.16c-2.36,1-2.27,3.91.15,5.2a2.81,2.81,0,1,0-.15-5.2m-6.31,28.66a7.72,7.72,0,0,1-.38,2.19,14.3,14.3,0,0,0-.46,3.32,17.23,17.23,0,0,1-.63,3.9c-.81,2.78-1.22,24.87-.54,28.41.25,1.24.5,2.61.57,3,.54,3.38,2.11,8.4,2.62,8.4.21,0,.27.16.15.36s.12.95.54,1.66,1.07,1.87,1.42,2.57.8,1.27,1,1.27a.36.36,0,0,1,.35.39c0,.83,5.37,6.25,6.19,6.25a4.16,4.16,0,0,1,1.39,1,4.06,4.06,0,0,0,1.43,1,.39.39,0,0,1,.37.39c0,.22.26.39.58.39s.59.18.59.39a.39.39,0,0,0,.4.39,88.66,88.66,0,0,1,10.08,6.71.72.72,0,0,0,.65.33.75.75,0,0,1,.65.29,8.87,8.87,0,0,0,2,1.27,15,15,0,0,1,2.63,1.67,2.79,2.79,0,0,0,.86.64,5.42,5.42,0,0,1,2.25,1.19c0,.13.62.47,1.37.74s1.36.66,1.36.86.14.33.3.29a78.33,78.33,0,0,1,9.8,4.86c.07.17.29.2.48.08s.36,0,.36.26.1.37.23.25,1.19.12,4.36,1.53c.81.35,1.6.68,1.76.73a3.4,3.4,0,0,1,.49.18,3.36,3.36,0,0,0,.48.16c.54.11,8.49,2.27,9.09,2.47a9.21,9.21,0,0,0,1.56.3l5,.57c6.69.75,16.87-1.14,31.58-5.89,25.31-8.15,40.31-17.89,42.56-27.6.33-1.45.7-2.89.82-3.21a2.22,2.22,0,0,0,.17-.85c0-.14.22-1.63.55-3.32.87-4.46,3.29-18.49,3.43-19.86.06-.64.33-3.63.59-6.64s.66-6.35.89-7.42c.36-1.73.32-3.4-.22-8.4a13.62,13.62,0,0,0-.34-1.95c-.11-.32-.51-1.69-.89-3-.52-1.84-.86-2.44-1.4-2.44s-.63.2-.48.59.05.58-.15.58-.61,1.06-.88,2.35a6.11,6.11,0,0,1-.77,2.34c-.15,0-.47.75-.7,1.66-.41,1.56-1.72,5.25-2.8,7.91a15.13,15.13,0,0,0-.69,2.25c-.12.59-.34,1.07-.49,1.07s-.53.75-.83,1.66a41.62,41.62,0,0,1-3.12,6.54c-.79,1.37-2.39,3.13-2.85,3.13a2.11,2.11,0,0,0-1,.54,53,53,0,0,1-7.06,3.65,34.29,34.29,0,0,1-5.47,2.06c-1,.26-2.23.65-2.82.87-1.49.54-5.78,1-5.78.62,0-.18-.23-.32-.52-.32a4,4,0,0,1-1.66-1,4.16,4.16,0,0,0-1.62-1,.46.46,0,0,1-.49-.42c0-.22-.18-.3-.39-.17s-.39.06-.39-.17a.42.42,0,0,0-.42-.42,5.07,5.07,0,0,1-1.66-.93c-1.59-1.19-6.12-3.47-6.13-3.08,0,.17-.14.13-.3-.09-1.73-2.36-13-3-17.8-.95-2.43,1-5.88,3.71-5.51,4.31.51.82-.34.26-1.26-.83a8.8,8.8,0,0,0-2.2-1.81,8.15,8.15,0,0,1-1.73-1.15c-1.94-1.93-15.45-2.33-20.11-.6a17.16,17.16,0,0,1-2.74.85,8.61,8.61,0,0,0-2.06.77,9.36,9.36,0,0,1-2,.77,33.52,33.52,0,0,0-5.21,2.37c-.33.18-1.86,1-3.42,1.77a18.27,18.27,0,0,0-3.27,2,1.53,1.53,0,0,1-1,.53c-.71,0-9.5-4.31-9.5-4.66,0-.15-.66-.56-1.47-.92a10.53,10.53,0,0,1-2.44-1.56,7,7,0,0,0-1.66-1.17c-.37-.14-.68-.44-.68-.66s-.27-.4-.6-.4a1,1,0,0,1-.82-.59.9.9,0,0,0-.68-.59,2.1,2.1,0,0,1-1.12-.68c-1.37-1.41-2.13-2.05-2.48-2.06a4.69,4.69,0,0,1-2-2.1.91.91,0,0,0-.43-.6,1.61,1.61,0,0,1-.53-1,4.19,4.19,0,0,0-.42-1.24c-.65-1-3.11-10.28-2.82-10.57.11-.11.05-.4-.14-.64a49.23,49.23,0,0,1-1.89-8.92c.05-.25-.31-.48-.8-.52s-.87.14-.81.58m85.68,37.72a10.17,10.17,0,0,1,3.64.55c.07.21.54.31,1.06.21a8.11,8.11,0,0,1,2.62.24c.92.22,2.2.48,2.84.58a17.21,17.21,0,0,1,3.89.9,4.85,4.85,0,0,0,1.42.33,10.22,10.22,0,0,1,2.16.58c.62.26,1.26.5,1.42.55a2.52,2.52,0,0,1,.49.18,3.94,3.94,0,0,0,.58.19,3.61,3.61,0,0,1,.59.2,2.46,2.46,0,0,0,.65.14c.53.06.95,1,.44,1-.18,0-.57.79-.85,1.76s-.68,1.75-.87,1.75-.35.23-.35.51c0,.83-3.47,5.35-4.1,5.35-.32,0-.59.14-.59.31,0,1.8-6.88,2.81-10.74,1.57-8.83-2.84-17.61-2.87-23.94-.09-1.92.84-7.79.74-10.42-.18a5.59,5.59,0,0,0-2.33-.52c-.12.12-.22,0-.22-.24a.49.49,0,0,0-.52-.45c-.65,0-4.56-3.63-4.56-4.24,0-.25-.15-.45-.33-.45-.35,0-2.79-5-2.79-5.74,0-1.37,16.34-4.71,24.55-5a11.63,11.63,0,0,0,3.12-.38,23.88,23.88,0,0,1,4.94,0l8.2.42" transform="translate(-118.37 -77.64)"/><path class="cls-2" d="M0,0" transform="translate(-118.37 -77.64)"/></g></svg>