<svg width="321" height="65" viewBox="0 0 321 65" fill="none" xmlns="http://www.w3.org/2000/svg">
<rect width="321" height="65" rx="18" fill="#4169E1"/>
<path d="M22.6268 41.6149C20.2765 41.6149 18.2814 40.8224 16.6417 39.2373C14.9746 37.6795 14.1411 35.7801 14.1411 33.5391H15.7808C15.7808 35.3429 16.4504 36.887 17.7895 38.1714C19.1286 39.4559 20.7411 40.0981 22.6268 40.0981C24.6765 40.0981 26.4392 39.5516 27.915 38.4584C29.3634 37.3652 30.0876 36.0398 30.0876 34.482C30.0876 33.1429 29.4454 32.0224 28.1609 31.1205C26.9038 30.2186 25.2094 29.6721 23.0777 29.4807C20.4814 29.2621 18.4044 28.5242 16.8466 27.2671C15.2889 26.0099 14.51 24.4658 14.51 22.6348C14.51 20.8311 15.3025 19.287 16.8876 18.0025C18.4727 16.718 20.3858 16.0758 22.6268 16.0758C25.0317 16.0758 27.0951 16.7453 28.8168 18.0845C30.5112 19.4236 31.3584 21.036 31.3584 22.9217H29.7187C29.7187 21.4733 29.0218 20.2298 27.628 19.1913C26.2616 18.1528 24.5945 17.6335 22.6268 17.6335C20.8504 17.6335 19.3199 18.1255 18.0355 19.1093C16.7783 20.0658 16.1498 21.241 16.1498 22.6348C16.1498 24.0012 16.8057 25.1491 18.1175 26.0783C19.4566 27.0075 21.2193 27.5677 23.4057 27.759C25.9199 27.9776 27.9423 28.7019 29.4727 29.9317C30.9758 31.1615 31.7274 32.6783 31.7274 34.482C31.7274 36.4497 30.8392 38.1304 29.0628 39.5242C27.2864 40.918 25.1411 41.6149 22.6268 41.6149ZM42.0888 41.6149C39.7385 41.6149 37.8527 40.7677 36.4316 39.0733C35.0105 37.3516 34.3 35.0832 34.3 32.2683C34.3 29.4534 35.0105 27.1851 36.4316 25.4634C37.8527 23.7689 39.7385 22.9217 42.0888 22.9217C44.4391 22.9217 46.3248 23.7006 47.7459 25.2584C49.167 26.8161 49.8776 28.8932 49.8776 31.4894V32.2683H35.9397C35.9397 34.646 36.5 36.5453 37.6204 37.9665C38.7409 39.3876 40.2304 40.0981 42.0888 40.0981C43.4826 40.0981 44.7397 39.7292 45.8602 38.9913C47.008 38.2261 47.8006 37.2286 48.2378 35.9988H49.8776C49.6043 37.6112 48.7298 38.9503 47.254 40.0161C45.7782 41.082 44.0565 41.6149 42.0888 41.6149ZM35.9397 30.7106H48.2378V30.0957C48.1012 28.4832 47.4453 27.1168 46.2701 25.9963C45.0677 24.9031 43.6739 24.3565 42.0888 24.3565C40.5037 24.3565 39.1236 24.9168 37.9484 26.0373C36.7459 27.1851 36.0763 28.5925 35.9397 30.2596V30.7106ZM55.3747 41H53.7349V23.5366H55.3747V26.4882C55.8666 25.4497 56.6182 24.6298 57.6293 24.0286C58.6405 23.4 59.761 23.0857 60.9908 23.0857C62.7126 23.0857 64.1747 23.646 65.3772 24.7665C66.607 25.9143 67.2219 27.2807 67.2219 28.8658V41H65.5821V28.8658C65.5821 27.6634 65.1312 26.6385 64.2293 25.7913C63.3275 24.9441 62.248 24.5205 60.9908 24.5205C59.6244 24.5205 58.4082 24.9851 57.3424 25.9143C56.2765 26.8708 55.6206 28.0596 55.3747 29.4807V41ZM78.6455 41.4509C76.5412 41.4509 74.7375 40.5491 73.2344 38.7453C71.7313 36.9689 70.9797 34.8099 70.9797 32.2683C70.9797 29.6994 71.7313 27.4994 73.2344 25.6683C74.7375 23.8373 76.5412 22.9217 78.6455 22.9217C79.9847 22.9217 81.2145 23.318 82.335 24.1106C83.4282 24.9304 84.2207 25.9963 84.7126 27.3081V16.6907H86.3524V41H84.7126V37.4335C84.2754 38.636 83.4965 39.6062 82.376 40.3441C81.2828 41.082 80.0393 41.4509 78.6455 41.4509ZM78.6455 40.2211C80.3126 40.2211 81.7474 39.4422 82.9499 37.8845C84.125 36.3267 84.7126 34.4547 84.7126 32.2683C84.7126 30.082 84.125 28.2236 82.9499 26.6932C81.7474 25.1354 80.3126 24.3565 78.6455 24.3565C76.9785 24.3565 75.5573 25.1354 74.3822 26.6932C73.207 28.2236 72.6195 30.082 72.6195 32.2683C72.6195 34.4547 73.207 36.3267 74.3822 37.8845C75.5573 39.4422 76.9785 40.2211 78.6455 40.2211ZM120.582 41H104.717V16.6907H120.582V18.2894H106.357V27.636H119.352V29.1528H106.357V39.4422H120.582V41ZM125.306 41H123.667V23.5366H125.306V26.4882C125.798 25.4497 126.55 24.6298 127.561 24.0286C128.572 23.4 129.693 23.0857 130.922 23.0857C132.644 23.0857 134.106 23.646 135.309 24.7665C136.539 25.9143 137.154 27.2807 137.154 28.8658V41H135.514V28.8658C135.514 27.6634 135.063 26.6385 134.161 25.7913C133.259 24.9441 132.18 24.5205 130.922 24.5205C129.556 24.5205 128.34 24.9851 127.274 25.9143C126.208 26.8708 125.552 28.0596 125.306 29.4807V41ZM156.284 47.559H154.644V37.3106C154.18 38.595 153.401 39.6335 152.308 40.4261C151.214 41.2186 150.012 41.6149 148.7 41.6149C146.377 41.6149 144.519 40.7404 143.125 38.9913C141.731 37.2422 141.034 34.9056 141.034 31.9814C141.034 29.2484 141.731 27.0484 143.125 25.3814C144.519 23.7416 146.377 22.9217 148.7 22.9217C149.957 22.9217 151.119 23.277 152.185 23.9876C153.278 24.6981 154.098 25.641 154.644 26.8161V23.5366H156.284V47.559ZM148.7 40.2211C150.34 40.2211 151.747 39.4149 152.923 37.8025C154.07 36.1901 154.644 34.2497 154.644 31.9814C154.644 29.877 154.07 28.0733 152.923 26.5702C151.747 25.0944 150.34 24.3565 148.7 24.3565C146.869 24.3565 145.407 25.0534 144.314 26.4472C143.221 27.841 142.674 29.6857 142.674 31.9814C142.674 34.4683 143.221 36.4634 144.314 37.9665C145.407 39.4696 146.869 40.2211 148.7 40.2211ZM167.272 41.4509C165.632 41.4509 164.225 40.918 163.05 39.8522C161.874 38.7863 161.287 37.5019 161.287 35.9988V23.5366H162.927V35.9988C162.927 37.1193 163.35 38.0894 164.197 38.9093C165.045 39.7019 166.069 40.0981 167.272 40.0981C168.693 40.0981 169.964 39.5516 171.084 38.4584C172.205 37.3652 172.915 35.9851 173.216 34.318V23.5366H174.856V41H173.216V37.9255C172.724 38.9913 171.932 39.8522 170.838 40.5081C169.773 41.1366 168.584 41.4509 167.272 41.4509ZM181.735 41H180.095V23.5366H181.735V41ZM180.095 19.1913V16.6907H181.735V19.1913H180.095ZM188.632 41H186.992V23.5366H188.632V27.472C189.096 26.2149 189.779 25.1901 190.681 24.3975C191.61 23.6323 192.594 23.2497 193.633 23.2497H194.576V25.1354C194.494 25.1354 194.398 25.1081 194.289 25.0534C194.207 24.9988 194.152 24.9714 194.125 24.9714C192.84 24.9714 191.679 25.518 190.64 26.6112C189.602 27.7043 188.932 29.0845 188.632 30.7516V41ZM196.695 47.559V46.3292H197.966C198.595 46.3292 199.278 45.8236 200.016 44.8124C200.754 43.8012 201.423 42.4758 202.024 40.836L195.342 23.5366H196.859L202.803 38.8273L208.706 23.5366H210.305L202.803 42.8857C202.284 44.2795 201.615 45.4137 200.795 46.2882C199.947 47.1354 199.1 47.559 198.253 47.559H196.695Z" fill="black"/>
<path d="M306 32.5L291.778 21M306 32.5H242H306ZM306 32.5L291.778 44L306 32.5Z" stroke="#333333" stroke-width="2" stroke-linecap="round" stroke-linejoin="round"/>
</svg>
