<?xml version="1.0" standalone="no"?>
<!DOCTYPE svg PUBLIC "-//W3C//DTD SVG 20010904//EN"
 "http://www.w3.org/TR/2001/REC-SVG-20010904/DTD/svg10.dtd">
<svg version="1.0" xmlns="http://www.w3.org/2000/svg"
 width="2236.000000pt" height="2236.000000pt" viewBox="0 0 2236.000000 2236.000000"
 preserveAspectRatio="xMidYMid meet">
<metadata>
Created by potrace 1.14, written by Peter Selinger 2001-2017
</metadata>
<g transform="translate(0.000000,2236.000000) scale(0.100000,-0.100000)"
fill="#000000" stroke="none">
<path d="M5559 15939 c-117 -10 -171 -40 -185 -103 -3 -17 -9 -35 -12 -41 -4
-5 -8 -18 -9 -28 -5 -29 -38 -88 -92 -162 -50 -68 -97 -155 -104 -192 -9 -44
-20 -73 -28 -73 -5 0 -8 -3 -7 -8 2 -4 -17 -28 -41 -52 -47 -49 -80 -110 -81
-150 0 -32 -26 -71 -83 -124 -47 -45 -95 -114 -100 -143 -1 -10 -5 -22 -8 -28
-4 -5 -9 -22 -13 -37 -11 -49 -74 -144 -119 -181 -46 -38 -82 -98 -73 -123 3
-8 1 -14 -4 -14 -6 0 -10 -8 -10 -19 0 -22 -41 -84 -86 -129 -19 -19 -34 -40
-34 -47 0 -7 -4 -15 -10 -17 -5 -1 -11 -18 -13 -36 -2 -17 -7 -35 -10 -39 -4
-3 -7 -14 -7 -24 0 -22 -35 -83 -68 -118 -40 -43 -70 -92 -92 -156 -36 -98
-59 -144 -119 -234 -32 -48 -71 -120 -85 -161 -15 -41 -34 -86 -43 -100 -23
-36 -66 -80 -78 -80 -14 0 -57 -66 -60 -93 -11 -90 -39 -147 -109 -222 -58
-62 -91 -118 -100 -169 -7 -36 -63 -130 -108 -177 -43 -46 -87 -127 -90 -167
-1 -18 -6 -32 -10 -32 -4 0 -7 -3 -6 -7 4 -13 -23 -56 -52 -84 -46 -44 -78
-93 -83 -124 -13 -79 -32 -119 -81 -170 -27 -28 -99 -143 -120 -190 -62 -137
-80 -165 -139 -207 -9 -7 -30 -49 -46 -93 -37 -100 -52 -130 -117 -227 -30
-45 -57 -100 -64 -129 -11 -46 -58 -127 -102 -173 -32 -35 -88 -137 -93 -170
-2 -17 -4 -33 -5 -36 -1 -3 -3 -9 -4 -15 -6 -37 -40 -87 -79 -114 -24 -18 -50
-45 -57 -59 -13 -25 -15 -33 -23 -64 -10 -40 -23 -69 -55 -123 -20 -33 -39
-62 -43 -65 -22 -16 -89 -151 -96 -195 -6 -39 -31 -86 -55 -105 -10 -8 -32
-26 -49 -40 -28 -23 -98 -133 -103 -163 -1 -6 -8 -22 -14 -34 -7 -13 -10 -23
-6 -23 3 0 -5 -15 -20 -34 -14 -19 -26 -38 -26 -43 0 -4 -22 -32 -50 -61 -49
-53 -73 -104 -84 -173 -4 -19 -19 -49 -34 -65 -37 -39 -75 -94 -65 -94 4 0 4
-4 -2 -8 -5 -4 -19 -27 -31 -52 -54 -116 -70 -145 -76 -148 -5 -2 -8 -10 -8
-18 0 -8 -4 -14 -9 -14 -5 0 -12 -8 -15 -17 -3 -10 -21 -34 -39 -53 -46 -49
-67 -86 -73 -123 -11 -78 -30 -120 -102 -221 -64 -90 -102 -164 -102 -199 0
-36 -22 -73 -50 -85 -25 -11 -85 -109 -120 -194 -9 -21 -21 -43 -28 -50 -6 -6
-12 -16 -12 -22 0 -9 -65 -100 -99 -137 -37 -41 -43 -51 -44 -84 -1 -19 -4
-35 -7 -35 -3 0 -6 -9 -7 -20 -2 -22 -66 -119 -109 -165 -41 -45 -84 -116 -84
-141 0 -13 -5 -26 -10 -29 -5 -3 -10 -14 -10 -23 0 -10 -17 -41 -38 -71 -20
-30 -45 -66 -54 -80 -18 -28 -53 -130 -50 -145 5 -16 -46 -91 -80 -118 -96
-76 -108 -94 -122 -183 -6 -37 -19 -60 -48 -84 -15 -13 -28 -30 -28 -37 0 -7
-4 -14 -9 -16 -4 -1 -41 -67 -81 -145 -41 -79 -77 -143 -82 -143 -4 0 -8 -7
-8 -15 0 -8 -8 -15 -18 -15 -21 0 -42 -18 -42 -37 0 -12 72 -31 94 -25 4 2 13
-1 20 -7 17 -14 735 -8 768 6 17 8 30 23 34 40 14 65 27 95 52 118 15 14 32
25 39 25 7 0 13 6 13 13 0 8 8 22 19 31 20 18 36 56 72 174 12 39 26 72 30 72
5 0 9 6 9 13 0 7 22 37 50 66 51 56 78 109 82 161 1 17 8 36 15 42 7 6 13 16
13 22 0 7 19 31 43 53 23 23 48 48 54 57 19 22 53 101 63 141 8 34 75 141 106
170 56 51 106 150 118 231 1 8 8 20 14 26 7 7 12 15 12 19 0 4 22 31 50 60 27
28 52 60 55 70 4 11 11 19 16 19 5 0 8 3 7 8 -4 11 36 102 45 102 5 0 6 4 3 8
-2 4 17 40 44 79 63 93 89 143 96 190 8 54 33 102 74 143 58 59 72 80 136 205
66 130 83 160 151 275 55 94 85 139 148 230 28 40 57 82 65 95 37 55 56 81 67
92 9 10 381 13 1757 15 960 2 1746 1 1746 -2 0 -5 164 -3 213 3 15 2 27 1 27
-2 0 -3 389 -6 865 -6 476 0 865 -4 865 -8 0 -5 6 -5 12 -1 16 10 48 13 48 5
0 -4 19 -5 43 -3 95 7 117 7 117 0 0 -4 11 -3 24 2 13 5 26 6 29 3 3 -3 124
-7 269 -9 243 -4 341 -7 458 -17 64 -5 96 -29 120 -93 11 -30 20 -60 20 -67 0
-20 37 -74 84 -122 24 -25 51 -67 61 -93 18 -48 80 -160 160 -287 24 -38 41
-73 39 -77 -3 -5 -1 -8 4 -8 5 0 17 -26 26 -57 30 -97 53 -137 97 -163 43 -27
77 -73 85 -115 6 -32 37 -89 75 -137 16 -20 29 -40 29 -43 0 -4 9 -20 21 -36
11 -16 22 -35 23 -42 2 -7 10 -29 20 -49 9 -21 16 -42 16 -47 0 -14 67 -126
86 -145 30 -30 83 -129 99 -182 16 -55 64 -143 78 -144 30 -1 127 -134 127
-174 0 -26 32 -87 94 -181 33 -49 59 -92 59 -95 0 -3 3 -14 7 -25 4 -11 13
-44 21 -73 8 -33 23 -62 40 -78 101 -92 106 -99 118 -152 13 -60 41 -120 73
-156 43 -47 59 -68 70 -92 6 -13 15 -24 20 -24 4 0 8 -8 8 -18 0 -17 30 -42
60 -50 66 -16 157 -20 435 -17 302 3 360 6 428 21 38 8 32 33 -14 57 -43 23
-63 53 -202 317 -88 168 -97 181 -181 277 -57 66 -81 110 -90 158 -13 69 -16
81 -28 105 -7 14 -35 52 -62 85 -45 56 -96 149 -96 178 0 27 -61 135 -94 168
-20 19 -36 40 -36 47 0 6 -5 12 -10 12 -13 0 -31 42 -44 97 -8 35 -33 77 -87
148 -59 78 -109 168 -109 199 -1 34 -34 98 -74 141 -21 22 -48 58 -61 80 -24
42 -67 155 -59 155 3 0 -4 13 -15 29 -12 16 -21 33 -21 38 0 4 -21 31 -47 58
-46 50 -78 107 -87 158 -6 35 -37 79 -97 140 -52 52 -88 117 -94 169 -15 115
-21 127 -100 204 -44 42 -55 59 -64 104 -13 62 -44 118 -101 187 -22 26 -45
54 -51 61 -17 21 -51 103 -45 109 3 4 1 12 -5 20 -6 7 -9 13 -5 13 15 0 -44
88 -93 140 -54 57 -101 141 -101 182 0 38 -56 145 -108 206 -51 60 -98 132
-87 132 4 0 3 6 -2 13 -6 6 -13 23 -16 37 -4 14 -30 50 -58 80 -50 55 -77 101
-86 150 -12 72 -66 170 -138 254 -23 26 -48 81 -65 143 -20 67 -40 107 -70
133 -37 33 -98 133 -134 218 -37 90 -54 115 -114 163 -21 17 -33 37 -36 60 -3
19 -5 34 -6 34 -1 0 -3 8 -5 17 -2 9 -13 37 -25 61 -21 41 -34 60 -93 127 -31
35 -81 136 -73 148 3 6 2 13 -3 16 -8 5 -23 63 -18 69 1 1 -4 9 -11 17 -59 70
-100 142 -177 315 -18 41 -103 155 -114 155 -7 0 -35 76 -46 124 -8 38 -37 79
-97 139 -51 50 -90 115 -94 157 -1 14 -3 25 -4 25 -1 0 -3 10 -6 23 -6 36 -60
129 -104 181 -22 27 -40 53 -40 59 0 5 -7 15 -15 22 -8 7 -22 36 -31 66 -15
53 -37 87 -84 134 -44 44 -67 95 -86 190 -13 66 -23 83 -106 170 -52 56 -96
139 -80 154 3 3 0 6 -5 6 -6 0 -10 8 -9 17 5 29 -28 90 -80 148 -53 61 -63 76
-69 103 -8 42 -36 92 -100 177 -82 110 -95 134 -111 213 -3 16 -50 97 -67 114
-34 35 -87 106 -87 117 0 6 -4 11 -9 11 -9 0 -21 30 -26 63 -1 9 -3 18 -4 20
-2 1 -4 12 -7 24 -6 33 -57 123 -110 195 -25 35 -61 95 -79 134 -18 39 -49 97
-69 128 -20 31 -36 60 -36 65 0 5 -3 11 -7 13 -10 4 -73 94 -73 103 0 3 -7 13
-15 21 -13 13 -72 15 -427 13 -227 -2 -452 -6 -499 -10z m427 -743 c41 -4 87
-47 125 -115 17 -31 55 -94 84 -141 30 -47 61 -110 70 -140 23 -78 70 -171
110 -216 20 -21 38 -47 41 -56 3 -10 9 -18 13 -18 14 0 49 -88 56 -140 2 -13
9 -26 14 -28 6 -2 11 -10 11 -18 0 -8 5 -20 10 -27 41 -47 130 -174 130 -184
0 -7 4 -13 9 -13 5 0 12 -17 16 -37 7 -43 56 -153 67 -153 5 0 8 -6 8 -13 0
-7 8 -22 18 -33 34 -37 97 -151 106 -191 13 -63 20 -83 28 -83 5 0 7 -4 4 -8
-3 -5 7 -17 22 -28 55 -40 92 -77 92 -90 0 -8 4 -14 8 -14 4 0 8 -8 8 -17 1
-10 4 -38 8 -63 4 -25 8 -51 8 -57 1 -7 4 -13 7 -13 3 0 12 -12 18 -27 7 -16
29 -46 49 -68 36 -41 73 -108 74 -135 0 -22 48 -109 82 -150 46 -55 47 -57 69
-97 12 -21 25 -42 29 -48 6 -9 10 -23 26 -104 5 -25 60 -101 73 -101 13 0 87
-75 98 -100 15 -32 25 -76 28 -120 1 -20 7 -45 12 -55 6 -11 16 -32 23 -47 7
-14 34 -49 61 -77 27 -28 49 -54 49 -57 0 -3 9 -14 20 -26 11 -12 27 -44 36
-72 13 -42 73 -147 94 -166 11 -9 60 -120 60 -135 0 -7 5 -17 11 -20 6 -4 8
-13 5 -20 -2 -7 -2 -16 2 -19 3 -4 7 -16 9 -28 6 -39 52 -106 93 -135 42 -29
75 -85 85 -142 7 -40 56 -144 76 -161 15 -13 110 -179 177 -310 147 -287 176
-338 229 -411 45 -61 74 -111 88 -149 6 -16 18 -48 25 -65 16 -36 25 -71 35
-126 4 -29 1 -41 -20 -65 -14 -16 -25 -25 -25 -20 0 5 -6 4 -13 -2 -7 -6 -24
-13 -37 -16 -14 -3 -34 -7 -46 -10 -18 -4 -66 -10 -169 -21 -141 -16 -692 -20
-2555 -19 -2359 0 -2746 5 -2905 37 -56 11 -80 148 -42 240 11 27 46 75 77
108 62 65 98 128 102 178 1 17 8 37 15 43 7 6 13 16 13 23 0 7 17 28 37 46 39
34 94 103 97 123 1 6 8 21 14 34 7 12 10 22 6 22 -3 0 -1 7 6 15 7 8 9 15 5
15 -4 0 -2 7 5 15 7 8 10 15 6 15 -7 0 68 136 84 150 38 34 110 168 110 206 0
11 3 24 8 28 4 4 8 12 8 17 1 5 2 13 3 17 0 5 26 35 56 68 30 32 58 69 61 82
3 12 9 22 13 22 4 0 8 16 9 36 4 48 34 103 73 134 54 42 79 73 85 110 8 41 72
179 94 200 36 35 110 171 110 200 0 29 61 138 102 182 43 46 98 153 98 190 0
47 53 129 114 176 16 12 26 22 22 22 -4 0 2 10 13 21 24 26 48 75 55 111 7 40
31 80 76 128 47 50 72 93 77 130 5 34 42 121 61 143 8 9 12 17 8 17 -4 0 -1 7
6 15 7 9 18 21 23 28 27 32 88 132 88 144 0 7 5 13 10 13 5 0 7 6 4 14 -3 8
-3 17 1 21 4 4 7 10 7 13 1 13 37 77 62 110 13 17 20 32 16 32 -4 0 -3 4 3 8
34 24 96 144 117 227 9 38 18 53 39 63 34 16 57 48 102 144 20 42 40 80 46 83
5 3 10 15 10 26 0 10 4 19 8 19 4 0 15 12 24 28 9 15 31 42 48 60 38 42 73
108 76 144 5 55 43 141 74 168 18 16 86 115 96 140 24 61 89 190 96 190 4 0 8
5 8 10 0 15 72 110 106 141 38 34 95 68 122 72 12 2 24 6 28 9 3 4 11 5 17 2
7 -2 26 -6 43 -8z"/>
<path d="M12859 15936 c-2 -2 -74 -7 -159 -10 -171 -6 -219 -11 -234 -26 -11
-11 -14 -233 -18 -1217 -2 -409 -7 -689 -12 -685 -5 3 -5 -1 0 -9 11 -18 12
-339 1 -339 -4 0 -5 -5 -1 -11 10 -17 12 -109 1 -109 -4 0 -5 -5 -1 -11 10
-16 12 -129 2 -135 -4 -3 -4 -15 0 -27 9 -24 7 -108 -2 -132 -3 -8 -2 -16 2
-19 9 -5 8 -67 -1 -82 -3 -6 -4 -14 0 -18 9 -9 10 -196 1 -223 -4 -12 -4 -24
0 -27 9 -6 8 -68 -1 -83 -4 -6 -3 -14 2 -18 7 -3 7 -15 1 -30 -5 -13 -6 -26
-2 -29 8 -5 7 -105 -1 -113 -3 -2 -1 -17 3 -33 5 -16 5 -45 0 -64 -4 -20 -5
-36 -1 -36 3 0 6 -14 7 -30 1 -17 -2 -30 -6 -30 -6 0 -6 -35 0 -50 2 -5 0
-115 -2 -135 -1 -5 2 -21 6 -34 5 -15 4 -21 -2 -17 -6 4 -7 -6 -2 -29 4 -19 4
-35 0 -35 -5 0 -7 -8 -5 -17 12 -58 14 -83 7 -79 -6 3 -7 -49 -2 -64 5 -13 4
-77 -1 -95 -4 -11 -3 -29 1 -40 4 -11 3 -30 -1 -43 -6 -16 -6 -21 2 -16 8 5 8
1 0 -13 -6 -11 -8 -23 -5 -25 8 -9 10 -82 2 -105 -4 -12 -3 -25 1 -28 5 -3 5
-20 1 -39 -4 -18 -3 -40 1 -49 5 -9 5 -18 1 -21 -5 -3 -6 -26 -2 -51 4 -27 3
-45 -3 -45 -5 0 -5 -5 1 -13 6 -7 7 -18 3 -25 -4 -7 -5 -32 -1 -55 3 -23 3
-58 -1 -77 -4 -19 -4 -41 0 -50 4 -8 6 -26 4 -40 -2 -14 -3 -41 -2 -60 1 -19
1 -41 0 -47 -2 -27 -2 -39 -1 -73 0 -19 -1 -50 -3 -67 -2 -18 1 -33 6 -33 6 0
6 -5 1 -12 -5 -7 -8 -26 -7 -43 3 -28 4 -70 2 -97 0 -13 0 -106 0 -145 0 -13
1 -38 1 -55 0 -18 0 -49 1 -68 1 -19 1 -41 0 -47 -2 -27 -2 -39 -1 -73 0 -19
-1 -50 -3 -67 -2 -18 1 -33 6 -33 6 0 6 -5 1 -12 -5 -7 -8 -26 -7 -43 3 -28 4
-70 2 -97 0 -13 0 -106 0 -145 0 -13 1 -38 1 -55 0 -18 0 -49 1 -68 1 -19 1
-42 0 -50 -1 -8 -1 -28 0 -45 1 -16 1 -37 0 -45 -2 -40 0 -124 4 -128 2 -2 0
-14 -4 -26 -5 -11 -5 -30 -1 -41 4 -11 4 -29 0 -40 -4 -11 -4 -29 0 -40 4 -11
4 -29 0 -40 -4 -11 -4 -29 0 -40 4 -11 3 -26 -2 -32 -7 -9 -7 -13 2 -13 8 0 9
-4 4 -12 -5 -7 -8 -26 -7 -43 2 -16 3 -43 3 -60 0 -16 0 -46 1 -65 1 -19 1
-41 0 -47 -3 -33 -2 -91 2 -115 2 -14 1 -32 -3 -38 -4 -6 -4 -29 0 -50 4 -21
4 -44 0 -50 -4 -7 -4 -26 0 -44 4 -17 4 -40 0 -50 -3 -10 -3 -42 0 -71 3 -29
3 -62 -1 -72 -3 -10 -3 -27 1 -38 4 -11 4 -29 0 -40 -4 -11 -4 -29 0 -40 4
-11 4 -29 0 -40 -4 -11 -4 -30 1 -42 5 -12 5 -25 0 -27 -4 -3 -5 -25 -2 -48 4
-24 4 -56 1 -73 -3 -16 -3 -45 1 -62 4 -18 4 -33 0 -33 -4 0 -6 -15 -4 -32 2
-18 4 -40 3 -48 0 -8 0 -33 1 -55 0 -22 0 -46 0 -52 -1 -7 -1 -31 -1 -53 0
-22 0 -55 0 -72 1 -129 2 -173 5 -176 2 -2 0 -14 -4 -26 -5 -11 -5 -30 -1 -41
4 -11 4 -29 0 -40 -4 -11 -4 -29 0 -40 4 -11 4 -29 0 -40 -4 -11 -4 -29 0 -40
4 -11 3 -26 -2 -32 -7 -9 -7 -13 2 -13 8 0 9 -4 4 -13 -5 -6 -8 -25 -7 -42 2
-16 3 -43 3 -60 0 -16 0 -46 1 -65 1 -19 1 -41 0 -47 0 -7 -1 -31 -1 -53 0
-22 0 -55 0 -72 0 -18 0 -49 1 -68 1 -19 1 -42 0 -50 -1 -8 -1 -28 0 -45 1
-16 1 -37 0 -45 -2 -40 0 -124 4 -128 2 -2 0 -14 -4 -26 -5 -11 -5 -30 -1 -41
4 -11 4 -29 0 -40 -4 -11 -4 -29 0 -40 4 -11 3 -28 -2 -39 -10 -18 76 -18
3109 -13 1715 3 3226 8 3358 11 443 11 565 15 575 21 6 3 10 1 10 -6 0 -8 4
-8 15 1 8 7 15 10 15 6 0 -4 13 0 29 8 15 8 39 17 52 20 13 2 31 7 39 10 19 6
69 14 140 22 30 3 62 8 70 11 8 2 38 6 65 8 94 5 235 50 337 106 10 5 35 11
55 14 93 13 177 39 243 75 8 4 85 43 170 86 85 44 158 84 162 89 4 6 8 7 8 3
0 -4 38 15 85 42 47 27 85 47 85 44 0 -3 6 0 13 6 6 6 48 32 92 58 96 56 225
146 280 197 22 20 73 68 115 107 104 98 116 108 190 166 67 52 80 69 100 134
8 25 28 51 63 80 59 49 82 76 83 100 1 17 41 87 59 103 42 37 106 146 121 205
7 27 25 95 28 105 15 50 52 123 95 192 50 79 59 172 59 634 -1 471 -8 525 -75
596 -49 51 -77 118 -88 213 -4 33 -29 100 -37 100 -4 0 -8 6 -8 14 0 16 -60
119 -72 124 -5 2 -8 8 -8 14 0 5 -11 24 -25 42 -14 18 -25 36 -25 39 0 4 -7
15 -16 24 -8 10 -42 54 -74 98 -76 104 -236 266 -310 313 -14 9 -29 22 -33 29
-4 7 -14 13 -22 13 -7 0 -15 3 -17 8 -1 4 -39 31 -83 61 -44 30 -121 85 -171
123 -50 37 -96 68 -102 68 -6 0 -12 4 -14 8 -1 5 -45 29 -96 55 -52 25 -101
52 -109 59 -9 7 -19 12 -22 12 -3 -1 -51 20 -106 46 -112 54 -204 76 -360 84
-173 10 -289 48 -350 116 -65 72 -39 186 52 221 15 6 70 15 120 20 90 8 165
28 248 65 22 10 43 17 48 16 4 -1 7 2 7 8 0 5 4 10 10 10 13 0 114 62 118 72
2 4 8 8 14 8 6 0 32 17 58 38 27 20 63 48 82 62 35 26 451 440 442 440 -3 0
11 17 31 38 48 49 71 96 78 159 7 58 27 103 63 142 30 32 100 173 96 193 -1 4
2 18 7 31 12 31 21 88 27 162 9 131 12 152 28 183 9 18 20 32 24 32 12 0 33
40 38 73 3 18 7 43 9 57 17 85 23 399 11 515 -4 33 -9 79 -11 103 -2 23 -9 51
-15 62 -6 11 -8 20 -5 20 4 0 -10 23 -30 50 -28 38 -37 61 -38 95 -1 25 -5 45
-9 45 -3 0 -5 8 -4 17 10 68 -55 236 -122 315 -49 58 -58 74 -71 140 -7 31
-23 72 -37 90 -13 18 -27 41 -30 51 -4 9 -10 17 -15 17 -4 0 -72 64 -151 143
-149 149 -232 223 -333 298 -33 24 -62 46 -65 49 -11 12 -99 64 -175 104 -22
12 -43 26 -47 31 -5 7 -8 7 -8 0 0 -6 -3 -6 -8 0 -7 11 -117 65 -128 64 -4 0
-10 3 -13 8 -6 9 -263 123 -279 123 -4 1 -25 9 -47 20 -22 11 -45 19 -52 20
-6 0 -24 5 -40 11 -15 6 -39 13 -53 14 -85 9 -132 19 -195 45 -77 32 -144 49
-220 56 -27 2 -70 7 -95 9 -70 7 -255 17 -357 19 -51 0 -93 4 -93 8 0 4 -11 3
-24 -2 -13 -5 -27 -6 -30 -3 -3 3 -94 7 -203 10 -109 2 -297 6 -418 8 -121 3
-227 5 -235 5 -8 0 -35 -1 -60 -1 -25 0 -56 0 -70 0 -14 1 -32 1 -40 1 -8 0
-238 2 -510 4 -685 7 -4545 17 -4551 12z m3218 -479 c6 -4 14 -3 18 3 4 6 10
8 15 5 4 -3 266 -7 581 -10 1266 -12 2094 -26 2234 -39 22 -2 67 -10 100 -19
71 -18 174 -38 230 -43 88 -8 195 -25 265 -44 25 -6 72 -24 105 -40 33 -16 89
-42 125 -57 62 -27 162 -78 205 -106 137 -85 281 -181 283 -188 2 -5 8 -9 13
-9 5 0 17 -6 26 -14 51 -41 114 -86 122 -86 5 0 11 -3 13 -7 2 -5 41 -39 88
-78 47 -38 102 -87 123 -108 36 -38 80 -110 72 -119 -2 -2 21 -30 51 -63 62
-67 97 -129 115 -201 7 -27 20 -67 30 -88 11 -22 19 -44 19 -48 0 -5 14 -23
30 -41 53 -56 97 -180 95 -264 0 -18 2 -33 5 -33 8 0 4 -233 -5 -290 -4 -25
-12 -51 -17 -57 -6 -7 -8 -13 -4 -13 10 0 -23 -60 -46 -84 -25 -26 -51 -84
-43 -96 4 -6 3 -10 -2 -10 -4 0 -9 -18 -10 -40 -3 -66 -100 -312 -143 -363
-36 -43 -79 -107 -90 -137 -24 -62 -72 -122 -196 -245 -124 -123 -151 -147
-243 -225 -30 -25 -62 -53 -73 -62 -10 -10 -22 -18 -28 -18 -5 0 -10 -4 -10
-10 0 -5 -7 -10 -16 -10 -8 0 -12 -4 -9 -10 3 -5 -1 -10 -9 -10 -9 0 -16 -4
-16 -10 0 -5 -7 -10 -15 -10 -8 0 -15 -4 -15 -10 0 -5 -7 -10 -15 -10 -8 0
-15 -4 -15 -8 0 -5 -10 -14 -22 -21 -13 -6 -35 -19 -50 -29 -135 -88 -301
-176 -448 -237 -36 -15 -85 -36 -110 -47 -24 -11 -49 -21 -55 -23 -5 -1 -18
-5 -27 -9 -9 -4 -25 -9 -35 -11 -10 -2 -18 -4 -18 -6 0 -1 -9 -3 -20 -5 -11
-1 -30 -5 -43 -8 -13 -3 -53 -8 -89 -11 -258 -25 -571 -31 -2348 -40 -2296
-13 -3201 -8 -3390 20 -66 9 -68 10 -128 39 -54 27 -58 31 -56 60 2 17 0 37
-4 43 -4 6 -3 14 3 18 6 4 7 12 1 23 -5 9 -5 26 -1 38 5 12 6 24 3 28 -10 9
-9 210 0 224 5 6 6 12 1 12 -10 0 -14 582 -14 1845 0 923 2 1175 10 1175 3 0
5 39 6 88 1 133 8 169 40 203 15 16 34 29 41 29 7 0 13 5 13 10 0 6 3 9 8 8 4
0 15 2 25 7 9 4 26 5 37 2 11 -3 22 -2 25 3 6 10 2686 7 2702 -3z m-1864
-4379 c-2 -5 7 -4 20 1 13 5 29 6 36 1 7 -4 28 -4 47 0 20 5 34 4 34 -2 0 -5
6 -6 13 -1 17 10 77 11 83 1 3 -5 11 -5 17 0 15 11 2687 10 2704 -1 6 -4 14
-4 16 0 6 10 160 8 176 -1 6 -4 11 -3 11 1 0 10 47 10 56 0 3 -3 17 -2 31 4
16 6 22 6 18 -1 -4 -6 2 -7 17 -2 13 5 34 7 48 5 14 -1 219 -5 455 -7 574 -7
1189 -21 1360 -31 183 -11 206 -15 233 -33 15 -11 45 -25 67 -31 22 -7 47 -15
55 -18 8 -4 28 -8 44 -10 15 -3 40 -9 55 -15 14 -6 32 -12 39 -14 12 -2 106
-39 172 -67 14 -6 27 -11 30 -12 55 -19 454 -216 462 -229 4 -6 8 -7 8 -2 0 5
8 3 18 -5 9 -8 26 -19 37 -25 48 -26 70 -39 75 -44 3 -3 21 -14 40 -24 46 -25
180 -124 201 -148 9 -10 20 -18 24 -18 5 0 26 -18 47 -40 22 -22 42 -40 46
-40 11 0 270 -268 264 -274 -3 -3 -1 -6 5 -6 6 0 34 -30 62 -67 28 -38 55 -73
59 -78 5 -6 16 -31 26 -55 16 -43 58 -107 118 -182 14 -18 28 -40 30 -48 2 -8
6 -17 9 -20 21 -16 31 -173 32 -515 1 -431 -1 -443 -95 -586 -31 -46 -63 -109
-73 -139 -28 -87 -72 -147 -224 -305 -95 -99 -312 -295 -326 -295 -4 0 -15 -8
-24 -18 -9 -10 -34 -31 -56 -47 -22 -17 -42 -32 -45 -36 -3 -3 -32 -25 -65
-50 -33 -24 -61 -47 -63 -51 -2 -5 -8 -8 -13 -8 -9 0 -68 -38 -79 -51 -3 -3
-12 -8 -20 -12 -20 -9 -54 -30 -60 -38 -3 -4 -25 -17 -49 -30 -24 -13 -54 -30
-67 -37 -13 -7 -24 -17 -24 -23 0 -5 -6 -9 -14 -9 -7 0 -19 -7 -27 -16 -19
-23 -72 -47 -199 -90 -63 -22 -116 -42 -118 -46 -2 -5 -9 -8 -16 -8 -12 0 -48
-15 -191 -79 -51 -23 -118 -46 -127 -43 -5 1 -8 -1 -8 -5 0 -5 -10 -9 -23 -10
-23 -2 -62 -10 -62 -13 0 -2 -74 -14 -170 -26 -98 -12 -283 -24 -457 -29 -64
-1 -121 -6 -127 -9 -6 -4 -11 -3 -11 2 0 5 -20 6 -45 2 -25 -4 -45 -3 -45 2 0
5 -6 6 -12 1 -15 -9 -50 -9 -1068 -17 -404 -3 -737 -6 -740 -7 -3 -1 -9 -1
-15 1 -10 2 -173 2 -190 0 -18 -2 -120 -2 -130 0 -5 1 -12 2 -15 1 -17 -7
-310 -4 -310 2 0 5 -6 5 -12 0 -17 -10 -2048 -10 -2048 0 0 5 -5 5 -11 1 -17
-10 -60 -11 -86 -2 -12 4 -25 3 -28 -2 -4 -7 -13 -6 -26 0 -13 8 -19 7 -19 0
0 -6 -4 -8 -10 -5 -5 3 -128 8 -272 11 -254 5 -377 9 -388 14 -3 1 -9 2 -14 1
-10 -2 -89 27 -126 46 -14 7 -20 13 -14 13 12 0 12 29 1 47 -5 7 -3 22 3 33 7
14 8 26 0 39 -7 14 -7 22 0 26 8 5 8 11 0 20 -8 10 -8 19 0 35 8 14 8 25 1 33
-6 8 -6 18 -1 27 5 9 5 19 -1 27 -7 8 -7 18 1 32 6 13 7 27 2 37 -5 8 -6 36
-2 60 4 25 3 47 -1 49 -4 3 -4 18 1 34 4 15 4 34 0 41 -4 6 -4 27 0 46 5 19 4
37 -1 40 -6 3 -6 12 0 22 6 10 6 23 0 34 -6 11 -5 19 1 23 8 5 8 11 0 20 -8
10 -8 19 0 35 8 14 8 25 1 33 -6 8 -6 18 -1 27 5 9 5 19 -1 27 -7 8 -7 18 1
32 7 15 8 27 0 40 -7 14 -7 22 0 26 8 5 7 11 -1 21 -9 11 -9 14 0 14 8 0 9 5
1 19 -7 14 -7 22 0 26 8 5 8 11 0 20 -8 10 -8 19 0 35 8 14 8 25 1 33 -6 8 -6
18 -1 27 5 9 5 19 -1 27 -7 8 -7 18 1 32 7 15 8 27 0 40 -7 14 -7 22 0 26 8 5
7 11 -1 21 -9 11 -9 14 0 14 8 0 9 5 3 16 -5 8 -6 36 -2 60 4 25 3 47 -1 49
-4 3 -4 18 1 34 4 15 4 34 0 41 -4 6 -4 27 0 46 4 19 4 36 0 39 -8 5 -5 48 5
65 4 6 2 16 -4 23 -6 8 -6 18 -1 27 5 9 5 19 -1 27 -7 8 -7 18 1 32 7 15 8 27
0 40 -7 14 -7 22 0 26 8 5 8 11 0 20 -8 10 -8 19 0 35 6 11 8 26 3 32 -9 16
-9 50 0 65 4 6 3 14 -2 17 -6 4 -6 18 -1 35 4 15 4 34 0 42 -5 7 -4 21 1 31 6
12 6 18 0 18 -7 0 -7 9 -1 25 6 15 6 27 0 30 -5 3 -6 16 -2 28 4 12 6 36 5 52
-5 44 -3 107 3 117 3 5 1 15 -6 23 -8 9 -8 15 0 20 6 3 7 11 4 17 -8 12 -7 68
0 106 3 12 2 22 -2 22 -4 0 -8 9 -8 20 0 11 3 20 6 20 7 0 3 97 -4 116 -3 7
-2 15 2 18 9 10 9 76 -1 76 -4 0 -5 5 -1 11 10 16 11 99 1 99 -4 0 -5 5 -1 12
4 7 9 136 10 288 3 412 13 693 29 780 10 62 15 70 43 72 15 1 41 3 57 4 94 8
294 15 548 18 159 3 290 6 292 8 7 7 83 3 78 -4z"/>
</g>
</svg>
