<?xml version="1.0" standalone="no"?>
<!DOCTYPE svg PUBLIC "-//W3C//DTD SVG 20010904//EN"
 "http://www.w3.org/TR/2001/REC-SVG-20010904/DTD/svg10.dtd">
<svg version="1.0" xmlns="http://www.w3.org/2000/svg"
 width="592.000000pt" height="592.000000pt" viewBox="0 0 592.000000 592.000000"
 preserveAspectRatio="xMidYMid meet">
<metadata>
Created by potrace 1.14, written by Peter Selinger 2001-2017
</metadata>
<g transform="translate(0.000000,592.000000) scale(0.100000,-0.100000)"
fill="#000000" stroke="none">
<path d="M3893 4164 c-5 -13 -7 -13 -14 -2 -7 10 -9 11 -9 0 0 -8 -5 -10 -12
-5 -19 11 -50 14 -44 4 6 -10 -40 -7 -68 5 -13 5 -17 4 -13 -3 4 -7 0 -10 -10
-8 -10 2 -18 4 -18 5 0 1 -17 3 -37 4 -20 1 -35 -1 -32 -5 5 -9 -17 -6 -33 4
-8 5 -13 3 -13 -5 0 -10 -2 -10 -9 1 -7 11 -9 11 -14 0 -5 -12 -6 -12 -6 0 -1
10 -4 11 -15 2 -10 -9 -16 -9 -21 -1 -5 8 -11 8 -21 -1 -11 -9 -14 -9 -14 1 0
9 -4 9 -17 -1 -11 -10 -14 -10 -9 -1 4 6 2 12 -3 12 -6 0 -11 -4 -11 -8 0 -10
-36 -9 -46 1 -4 4 -13 2 -21 -4 -7 -6 -13 -7 -13 -2 0 5 -9 9 -20 10 -11 1
-18 -2 -15 -6 6 -10 -42 -7 -69 5 -15 6 -17 4 -11 -7 8 -12 6 -12 -8 0 -11 9
-17 10 -17 2 0 -6 -5 -11 -11 -11 -5 0 -8 4 -5 8 3 5 -1 9 -9 9 -8 0 -12 -4
-9 -9 3 -4 1 -8 -4 -8 -5 0 -8 -14 -6 -31 3 -22 0 -28 -9 -23 -9 5 -9 4 1 -7
18 -20 15 -33 -5 -18 -16 12 -17 12 -7 -1 5 -8 9 -25 8 -37 -1 -21 7 -28 29
-24 12 2 8 -11 -7 -23 -8 -6 -17 -22 -21 -36 -7 -22 -6 -23 8 -11 9 7 14 18
10 24 -3 6 -1 7 6 3 9 -6 9 -11 0 -23 -10 -12 -10 -16 2 -24 10 -7 6 -8 -13
-5 -20 3 -25 1 -21 -10 3 -8 9 -11 14 -8 13 8 11 -10 -3 -24 -16 -16 4 -16 22
1 11 9 11 8 0 -7 -12 -15 -12 -20 -2 -24 10 -3 10 -6 -1 -16 -8 -6 -18 -22
-22 -36 -7 -22 -6 -23 8 -11 9 7 14 18 10 24 -3 6 -1 7 6 3 9 -6 9 -11 0 -23
-10 -12 -10 -16 2 -24 11 -8 10 -9 -5 -7 -10 2 -21 -3 -24 -11 -3 -8 0 -11 7
-7 15 10 14 -7 -1 -23 -10 -11 -10 -13 0 -7 7 4 12 1 12 -8 0 -9 5 -16 12 -16
7 0 5 -5 -4 -12 -9 -7 -19 -24 -23 -38 -7 -22 -6 -23 8 -11 9 7 14 18 10 24
-3 6 -1 7 6 3 8 -5 6 -15 -9 -36 -26 -37 -26 -48 2 -24 l22 19 -16 -23 c-17
-24 -13 -62 5 -62 6 0 4 -6 -5 -12 -9 -7 -19 -24 -23 -38 -7 -22 -6 -23 8 -11
9 7 14 18 10 24 -3 6 -1 7 6 3 8 -5 6 -15 -9 -36 -26 -37 -26 -48 2 -24 l22
19 -16 -23 c-17 -24 -13 -62 5 -62 6 0 4 -6 -5 -12 -9 -7 -19 -24 -23 -38 -7
-22 -6 -23 8 -11 9 7 14 18 10 24 -3 6 -1 7 6 3 8 -5 6 -15 -9 -36 -26 -37
-26 -48 2 -24 l22 19 -16 -23 c-17 -25 -13 -62 6 -62 6 -1 0 -7 -14 -15 -14
-8 -19 -14 -11 -15 11 0 11 -3 1 -15 -15 -18 1 -20 19 -2 11 10 11 8 0 -10 -7
-12 -16 -20 -19 -18 -3 2 -7 -6 -7 -17 -2 -20 -1 -20 19 -2 l22 19 -17 -24
c-13 -20 -14 -28 -4 -40 9 -12 9 -13 0 -7 -8 4 -13 1 -13 -8 0 -10 6 -13 18
-10 14 5 15 4 2 -5 -11 -8 -18 -7 -27 6 -7 9 -13 12 -13 6 0 -7 6 -18 14 -26
11 -11 12 -17 3 -27 -9 -10 -9 -11 1 -6 7 5 12 1 12 -9 0 -9 -4 -14 -8 -11 -4
2 -9 -5 -9 -16 -2 -20 -1 -20 20 -2 12 11 17 12 10 4 -6 -8 -14 -31 -17 -50
-5 -23 -4 -30 2 -21 6 8 12 9 16 3 3 -5 -1 -12 -9 -16 -8 -3 -19 3 -24 12 -6
9 -11 12 -11 5 0 -6 6 -18 14 -26 11 -11 12 -17 3 -27 -9 -10 -9 -11 1 -6 7 5
12 1 12 -9 0 -9 -4 -14 -8 -11 -5 3 -9 -1 -9 -9 0 -18 9 -19 27 -2 12 10 12 9
3 -3 -5 -8 -13 -28 -17 -43 -4 -18 -11 -25 -19 -20 -8 4 -7 1 2 -10 11 -14 11
-17 0 -17 -11 0 -11 -2 0 -9 12 -8 12 -12 2 -25 -10 -12 -10 -20 -3 -29 7 -8
7 -18 2 -27 -6 -8 -10 -19 -9 -25 0 -5 6 1 14 15 11 20 14 21 15 7 0 -11 4
-15 12 -11 7 4 8 3 4 -5 -4 -6 -11 -9 -16 -6 -4 3 -11 -2 -14 -11 -8 -21 -8
-24 5 -24 5 0 7 5 3 12 -5 7 -3 8 6 3 10 -6 9 -11 -5 -22 -18 -12 -10 -19 18
-14 5 1 5 -3 2 -9 -4 -6 -13 -9 -21 -6 -10 4 -13 -2 -10 -24 2 -20 -2 -30 -13
-33 -14 -4 -13 -5 2 -6 20 -1 22 -12 5 -30 -11 -10 -10 -15 5 -25 9 -7 17 -21
17 -30 0 -10 5 -14 12 -10 7 4 8 3 4 -5 -4 -6 -12 -9 -17 -6 -5 4 -10 1 -10
-4 -3 -21 -4 -26 -12 -38 -5 -7 -5 -19 0 -25 4 -7 6 -22 4 -33 l-3 -20 16 20
c15 19 16 19 9 1 -5 -14 -3 -17 7 -11 9 5 11 4 6 -4 -4 -6 -10 -10 -14 -7 -4
2 -16 0 -27 -5 -19 -7 -19 -8 3 -8 15 -1 22 -7 22 -21 0 -11 5 -20 12 -20 6 0
9 -2 6 -5 -9 -10 -38 7 -31 18 3 6 1 7 -5 3 -12 -7 -5 -36 9 -36 5 0 9 -9 9
-21 0 -13 4 -18 12 -13 7 4 8 3 4 -5 -4 -6 -11 -9 -16 -6 -4 3 -11 -2 -14 -11
-3 -8 -2 -12 4 -9 6 3 10 -3 10 -14 0 -10 6 -22 13 -25 6 -3 2 -3 -10 0 -13 3
-23 1 -23 -5 0 -6 5 -11 10 -11 6 0 10 -5 10 -11 0 -5 -6 -7 -12 -3 -9 5 -9 3
1 -9 7 -9 18 -14 24 -10 6 3 7 1 3 -6 -4 -6 -11 -9 -16 -6 -4 3 -11 -2 -14
-11 -4 -10 -2 -13 6 -8 8 5 9 2 5 -9 -4 -10 1 -21 11 -27 15 -9 14 -10 -5 -5
-12 3 -24 1 -28 -5 -4 -6 -1 -9 6 -8 6 2 14 -3 17 -11 3 -9 0 -11 -9 -6 -11 6
-12 5 -1 -6 18 -20 15 -33 -5 -18 -17 13 -17 13 -3 -5 15 -19 15 -23 0 -41 -5
-6 -5 -17 0 -25 5 -8 4 -22 -2 -33 -7 -13 -7 -17 0 -13 6 3 13 2 17 -4 4 -6
12 -7 18 -3 9 5 9 3 0 -8 -10 -12 -3 -14 40 -14 29 0 55 5 59 10 5 7 8 7 8 0
0 -5 18 -10 40 -10 22 0 40 4 40 9 0 5 7 3 15 -4 12 -10 15 -10 15 1 0 9 3 10
8 4 9 -12 82 -13 82 -1 0 5 7 3 15 -4 12 -10 15 -10 15 1 0 9 3 10 8 4 9 -12
82 -13 82 -1 0 5 7 3 15 -4 12 -10 15 -10 15 1 0 9 3 10 8 4 9 -12 82 -13 82
-1 0 5 7 3 15 -4 12 -10 15 -10 15 1 0 9 3 10 8 4 4 -6 55 -10 117 -10 62 0
113 4 117 10 5 7 8 7 8 0 0 -5 18 -10 40 -10 22 0 40 4 40 9 0 5 7 3 15 -4 12
-10 15 -10 15 1 0 9 3 10 8 4 9 -13 42 -15 42 -3 0 6 6 5 15 -2 12 -10 15 -10
15 1 0 12 2 12 9 0 7 -11 9 -11 14 0 4 10 6 10 6 2 1 -7 6 -13 12 -13 5 0 7 4
4 10 -4 7 3 7 19 0 18 -7 26 -6 26 1 0 8 5 7 15 -1 12 -10 15 -10 15 1 0 9 3
10 8 4 9 -12 82 -13 82 -1 0 5 7 3 15 -4 12 -10 15 -10 15 1 0 12 2 12 9 0 7
-10 10 -10 13 -1 3 9 9 8 21 -4 16 -16 17 -16 17 0 0 12 3 14 13 5 9 -7 17 -7
24 0 7 7 15 5 27 -6 15 -15 16 -15 16 1 0 12 3 14 13 5 9 -7 17 -7 24 0 7 7
15 5 27 -6 15 -15 16 -15 16 1 0 12 3 14 13 5 9 -7 17 -7 24 0 7 7 15 5 27 -6
15 -15 16 -15 16 0 0 9 5 13 11 9 17 -10 129 -10 129 1 0 7 3 7 8 0 8 -12 82
-14 75 -2 -2 4 7 6 22 3 18 -3 25 -1 22 7 -3 8 6 12 23 12 16 0 26 -3 24 -7
-3 -4 2 -5 10 -2 9 3 16 9 16 13 0 3 14 7 30 8 21 2 28 -1 24 -9 -5 -7 -3 -8
5 -4 7 5 10 14 7 21 -3 9 2 12 15 10 10 -2 19 0 19 6 0 5 5 9 11 9 5 0 7 -6 3
-13 -6 -8 -3 -8 9 1 9 8 20 11 25 8 5 -3 16 4 26 15 9 12 24 18 32 15 8 -3 14
-1 14 5 0 6 5 7 12 3 7 -5 9 -2 5 9 -4 12 -2 14 10 10 10 -4 14 -2 10 4 -8 12
20 27 42 24 8 -1 10 2 6 9 -6 9 -2 9 15 0 15 -8 20 -8 16 -1 -4 6 -2 11 4 11
7 0 9 7 6 16 -5 14 -4 15 9 4 12 -10 15 -10 15 0 0 7 7 10 14 7 10 -4 13 -1 9
8 -3 8 2 18 11 21 9 3 14 10 11 14 -3 4 2 11 11 14 10 4 13 2 8 -6 -5 -7 -3
-8 5 -4 7 5 10 14 7 22 -3 8 -2 13 2 13 4 -1 16 -1 27 0 17 1 18 3 5 11 -10 6
-11 10 -2 10 6 0 12 7 12 15 0 8 5 15 11 15 5 0 7 -5 3 -12 -4 -7 -3 -8 4 -4
6 4 9 13 6 20 -3 7 6 21 20 30 15 9 26 23 26 31 0 9 6 12 18 9 14 -5 15 -4 2
5 -9 7 -11 14 -5 19 15 11 19 46 4 36 -8 -5 -10 -3 -5 5 5 7 15 10 23 7 11 -5
13 -1 8 15 -5 13 -3 19 3 15 5 -3 13 1 16 10 5 12 2 15 -11 10 -15 -5 -14 -3
2 9 17 14 18 17 5 25 -11 7 -11 10 -2 10 7 0 10 4 7 10 -3 6 -2 10 3 10 6 0
13 7 16 16 5 14 4 15 -9 4 -20 -16 -19 -6 1 14 8 9 11 16 5 16 -6 0 -7 7 -4
17 4 9 2 14 -3 10 -11 -6 -10 29 1 73 5 19 4 22 -4 10 -7 -9 -11 -10 -11 -3 0
6 4 14 10 18 5 3 7 12 4 20 -4 8 -9 13 -13 10 -4 -2 -8 2 -8 10 0 8 5 11 11 8
6 -3 1 5 -10 18 -22 24 -22 55 -1 42 7 -3 3 3 -7 15 -23 26 -34 30 -15 5 13
-16 12 -17 -3 -5 -18 14 -14 47 5 35 6 -3 7 -1 3 6 -6 9 -11 9 -21 1 -11 -9
-12 -7 -8 9 3 13 1 21 -6 21 -7 0 -9 -5 -5 -12 4 -7 3 -8 -4 -4 -6 4 -8 14 -5
23 5 12 3 14 -7 8 -8 -5 -11 -4 -7 3 11 17 -4 42 -25 42 -10 0 -17 4 -14 8 3
5 -4 16 -15 25 -11 10 -17 22 -14 27 4 6 -1 7 -11 3 -13 -5 -16 -2 -12 8 4 11
0 15 -16 15 -12 -1 -20 4 -18 12 1 8 -3 12 -10 10 -7 -3 -21 6 -33 19 -11 13
-30 24 -42 26 -12 2 -26 7 -30 12 -5 4 -2 5 5 1 6 -4 12 -2 12 5 0 6 -8 9 -20
6 -11 -3 -20 -1 -20 4 0 6 -6 9 -14 7 -8 -2 -22 6 -31 17 -9 11 -13 13 -9 5 5
-10 -1 -8 -16 5 -13 11 -20 15 -17 8 5 -8 0 -11 -12 -10 -11 0 -17 5 -14 10 3
5 -4 6 -17 2 -15 -5 -20 -4 -16 4 4 6 0 11 -9 11 -10 0 -13 -5 -9 -12 6 -10 4
-10 -8 0 -17 13 -18 36 -3 49 4 4 5 3 2 -3 -4 -7 0 -14 8 -17 10 -4 12 -1 8
10 -5 13 -1 15 20 11 20 -4 27 -1 27 11 0 14 2 14 10 1 8 -13 10 -13 10 2 0
12 5 15 17 11 12 -5 14 -3 8 8 -7 11 -5 11 10 -1 11 -9 16 -10 11 -2 -4 6 -2
12 3 12 6 0 11 7 11 15 0 8 3 14 8 14 20 -3 32 2 32 15 0 7 8 20 18 27 15 13
16 12 3 -4 -8 -9 -11 -20 -7 -24 3 -3 6 -2 6 4 0 6 21 31 46 56 36 34 47 53
48 78 2 25 6 34 19 33 13 -1 14 2 7 16 -7 12 -4 23 10 38 21 22 27 48 10 37
-5 -3 -10 -4 -10 -1 0 3 12 13 28 21 15 9 19 14 10 11 -10 -3 -20 -1 -23 5 -4
5 -1 8 7 7 8 -2 12 4 10 16 -2 13 1 17 11 13 8 -3 14 1 14 9 0 8 -7 14 -16 14
-11 0 -10 3 5 15 12 9 14 14 6 15 -7 0 -10 4 -7 10 12 20 14 51 3 44 -8 -5 -9
-1 -4 12 13 29 15 65 5 58 -5 -3 -9 -1 -9 5 0 5 6 12 13 14 9 4 8 6 -2 6 -11
1 -11 4 -1 16 10 12 8 14 -9 10 -12 -2 -21 0 -21 6 0 5 7 9 15 9 8 0 15 4 15
10 0 5 -6 7 -14 4 -8 -3 -16 3 -19 15 -4 15 -1 18 11 13 14 -5 15 -4 2 10 -8
9 -19 13 -25 10 -5 -3 -3 3 5 13 14 17 13 18 -5 11 -11 -4 -16 -4 -12 0 4 4
-1 13 -11 21 -9 8 -11 12 -5 8 9 -4 11 -1 7 9 -3 9 -10 14 -14 11 -5 -3 -6 5
-2 17 4 16 2 19 -8 13 -10 -6 -12 -4 -7 8 4 12 2 14 -10 10 -11 -4 -14 -2 -9
5 4 7 1 12 -8 12 -8 0 -18 5 -22 12 -4 7 -3 8 4 4 23 -14 11 6 -20 35 -18 16
-38 29 -46 29 -7 0 -10 5 -7 10 3 6 -1 10 -10 10 -10 0 -13 5 -9 12 5 7 3 8
-6 3 -8 -5 -18 -2 -25 8 -6 9 -18 17 -25 19 -8 2 -21 10 -30 18 -8 9 -11 10
-6 3 11 -17 1 -17 -17 1 -8 8 -23 16 -33 18 -10 2 -22 7 -25 11 -4 5 -18 10
-32 10 -14 1 -23 5 -20 10 2 4 -1 7 -7 7 -6 0 -8 5 -4 12 4 7 3 8 -5 4 -6 -4
-9 -12 -6 -17 4 -5 1 -9 -4 -9 -6 0 -11 7 -11 16 0 13 -3 14 -15 4 -12 -10
-16 -9 -20 2 -4 10 -16 14 -36 12 -18 -2 -29 1 -29 9 0 8 -4 7 -10 -3 -7 -11
-10 -11 -10 -2 0 7 -4 11 -9 7 -5 -3 -12 -1 -15 4 -3 5 -21 6 -38 2 -40 -8
-80 -3 -73 9 6 9 -41 3 -58 -7 -6 -4 -8 1 -4 13 7 18 6 18 -7 1 -10 -14 -15
-15 -19 -5 -4 10 -6 10 -6 -1 -1 -11 -4 -11 -16 -1 -12 10 -15 10 -15 0 0 -9
-4 -9 -17 1 -15 12 -16 12 -8 -1 6 -12 5 -13 -6 -2 -15 14 -33 17 -25 4 3 -5
-1 -9 -9 -9 -8 0 -15 4 -15 9 0 4 -5 8 -11 8 -5 0 -7 -6 -3 -12 5 -9 2 -9 -9
1 -14 11 -17 11 -17 0 0 -12 -2 -12 -9 0 -7 11 -9 11 -14 0 -5 -12 -6 -12 -6
0 -1 11 -4 11 -16 1 -8 -7 -15 -8 -15 -3 0 5 -9 9 -20 10 -11 1 -19 -1 -16 -5
2 -4 -9 -7 -24 -7 -16 -1 -26 3 -24 7 8 12 -11 9 -24 -4 -9 -9 -12 -9 -12 1 0
11 -3 11 -17 0 -11 -10 -14 -10 -9 -1 4 6 3 12 -3 12 -5 0 -12 -4 -15 -9 -7
-10 -25 -9 -43 2 -8 5 -13 3 -13 -4 0 -8 -5 -7 -17 2 -15 12 -16 12 -8 -1 6
-12 5 -13 -6 -2 -15 14 -33 16 -25 3 4 -5 -2 -8 -11 -6 -10 1 -17 9 -15 16 1
8 -4 5 -13 -5 -11 -14 -15 -16 -15 -5 0 11 -2 12 -9 0 -6 -9 -11 -10 -15 -2
-4 6 -13 8 -19 4 -18 -11 -38 -12 -31 -2 8 13 -10 11 -24 -3 -9 -9 -12 -9 -12
1 0 11 -3 11 -17 0 -11 -10 -14 -10 -9 -1 4 6 3 12 -3 12 -5 0 -12 -4 -15 -9
-7 -10 -25 -9 -43 2 -8 5 -13 3 -13 -4 0 -8 -5 -7 -17 2 -15 12 -16 12 -8 -1
6 -12 5 -13 -6 -2 -15 14 -33 16 -25 3 4 -5 -2 -8 -11 -6 -10 1 -17 8 -15 14
3 17 -8 13 -15 -5z m1042 -24 c-3 -5 -12 -10 -18 -10 -7 0 -6 4 3 10 19 12 23
12 15 0z m-1741 -106 c3 -8 2 -12 -4 -9 -6 3 -10 10 -10 16 0 14 7 11 14 -7z
m286 -40 c0 -8 -19 -13 -24 -6 -3 5 1 9 9 9 8 0 15 -2 15 -3z m87 -9 c5 -4 1
-5 -7 0 -8 5 -12 4 -7 0 4 -5 16 -9 27 -10 15 -1 17 2 9 11 -8 9 -5 11 10 7
12 -3 19 -9 16 -12 -2 -4 2 -8 9 -8 8 0 12 7 9 16 -3 11 0 10 11 -3 14 -17 20
-16 18 5 -1 3 5 6 13 6 8 0 12 -4 9 -8 -5 -9 17 -17 33 -11 7 2 10 8 7 13 -3
5 2 6 10 3 9 -3 14 -9 11 -13 -2 -4 3 -8 11 -8 8 0 13 5 11 11 -3 6 6 11 18
11 19 0 21 -3 12 -15 -10 -12 -7 -12 13 1 15 10 33 13 45 9 11 -4 28 -3 39 2
14 8 17 7 11 -3 -6 -9 -3 -11 8 -6 9 3 19 2 22 -3 3 -6 16 -5 31 0 14 6 38 9
53 8 14 -1 33 2 40 7 10 6 12 4 6 -5 -6 -10 -4 -12 8 -7 9 3 19 2 22 -3 3 -6
16 -5 31 0 14 6 38 9 53 8 14 -1 33 2 40 7 10 6 12 4 6 -5 -6 -10 -4 -12 8 -7
9 3 19 2 22 -3 3 -6 16 -5 31 0 14 6 38 9 53 8 14 -1 33 2 40 7 10 6 12 4 6
-5 -6 -10 -4 -12 8 -7 9 3 19 2 22 -4 4 -5 10 -7 15 -4 5 3 29 9 55 14 41 8
44 7 33 -8 -10 -12 -7 -12 16 3 16 10 26 14 23 9 -4 -5 7 -10 23 -10 16 0 27
3 26 6 -2 3 6 6 19 6 16 0 20 -4 14 -11 -6 -7 -1 -10 14 -8 12 1 26 3 30 3 5
1 5 5 2 11 -3 6 1 7 9 4 9 -3 13 -10 10 -15 -3 -5 2 -6 10 -3 9 3 14 10 11 14
-3 5 8 5 25 0 17 -5 33 -9 37 -10 3 -1 10 4 14 12 7 10 9 9 9 -5 0 -14 4 -16
17 -8 10 5 24 6 33 1 8 -4 26 -10 40 -11 14 -2 28 -8 32 -14 5 -6 8 -4 8 4 0
11 4 10 16 -5 15 -19 16 -19 10 1 -5 17 -3 16 14 -5 17 -21 19 -22 14 -5 -5
19 -5 19 9 2 11 -14 16 -15 20 -5 4 8 6 7 6 -4 1 -10 6 -18 12 -18 5 0 7 6 4
13 -3 6 2 2 11 -10 17 -23 41 -33 28 -11 -4 6 4 3 18 -8 14 -10 23 -23 20 -28
-3 -5 2 -7 11 -3 11 4 17 1 17 -8 0 -8 3 -14 8 -14 20 3 32 -2 32 -15 0 -9 7
-13 20 -11 18 3 19 1 8 -18 -10 -20 -10 -21 6 -8 14 12 16 12 10 -3 -4 -11 1
-19 17 -25 13 -5 20 -10 15 -10 -6 -1 -1 -8 10 -17 10 -8 13 -13 7 -9 -7 3
-13 2 -13 -3 0 -15 28 -22 34 -9 3 9 5 9 5 0 1 -6 -4 -15 -9 -18 -6 -4 -4 -12
5 -21 8 -9 12 -20 9 -26 -4 -6 -3 -13 2 -17 5 -3 15 -16 22 -29 12 -22 12 -23
-8 -12 -26 14 -26 -1 0 -18 21 -13 27 -32 10 -32 -6 0 -9 5 -8 11 2 6 -4 14
-12 16 -9 3 -11 1 -5 -4 10 -7 12 -25 5 -38 -7 -13 -5 -31 3 -42 12 -16 -5
-17 -20 -2 -9 9 -10 7 -6 -9 3 -12 9 -20 13 -17 5 3 7 -3 5 -12 -2 -10 -4 -22
-4 -26 -1 -5 -5 -6 -9 -3 -5 3 -9 -1 -9 -9 0 -8 4 -12 9 -9 4 3 8 0 8 -5 0 -6
-7 -11 -16 -11 -8 0 -13 -4 -10 -8 2 -4 0 -14 -5 -22 -8 -13 -10 -13 -19 0 -5
8 -10 10 -10 4 0 -6 3 -14 7 -18 4 -3 7 -15 8 -26 1 -15 -1 -17 -12 -9 -10 9
-13 8 -13 -5 0 -9 -5 -16 -11 -16 -5 0 -7 4 -4 10 3 6 -1 7 -10 3 -9 -3 -13
-9 -8 -12 22 -16 10 -37 -19 -32 -4 0 -4 -7 -1 -16 5 -13 2 -15 -16 -10 -18 4
-20 3 -10 -9 9 -11 8 -14 -2 -14 -8 0 -20 -9 -27 -20 -7 -12 -16 -18 -21 -15
-5 2 -14 -2 -21 -10 -15 -18 -34 -20 -24 -3 4 7 3 8 -4 4 -6 -4 -8 -14 -5 -23
4 -11 3 -14 -5 -9 -7 4 -12 1 -13 -6 0 -11 -2 -11 -6 0 -4 10 -9 7 -20 -8 -8
-12 -21 -19 -29 -16 -7 3 -16 1 -19 -5 -4 -5 -11 -7 -16 -4 -5 4 -9 0 -9 -7 0
-9 -3 -9 -10 2 -8 12 -10 12 -10 1 0 -8 -3 -11 -7 -8 -3 4 -13 1 -21 -6 -13
-9 -14 -9 -8 1 4 6 2 12 -3 12 -6 0 -11 -4 -11 -10 0 -5 -12 -10 -26 -10 -16
0 -23 -4 -18 -12 5 -7 3 -8 -6 -3 -19 12 -112 16 -105 5 9 -15 -2 -12 -19 6
-9 8 -16 11 -16 5 0 -6 -24 -9 -65 -6 -41 3 -63 1 -60 -5 9 -15 -2 -12 -19 6
-9 8 -16 11 -16 6 0 -6 -22 -9 -50 -8 -28 2 -53 -1 -56 -6 -3 -4 -11 -8 -17
-8 -7 0 -6 4 3 11 11 7 6 9 -19 5 -18 -2 -45 0 -59 5 -20 8 -23 7 -14 -3 8
-10 5 -13 -13 -13 -13 0 -21 4 -18 8 2 4 -7 6 -22 3 -15 -3 -38 -1 -52 5 -21
8 -24 7 -15 -3 8 -10 5 -13 -13 -13 -13 0 -21 4 -18 8 2 4 -7 6 -22 3 -15 -3
-38 -1 -52 5 -21 8 -24 7 -15 -3 8 -10 5 -13 -13 -13 -13 0 -21 4 -18 8 2 4
-7 6 -22 3 -15 -3 -38 -1 -52 5 -21 8 -24 7 -15 -3 8 -10 5 -13 -13 -13 -13 0
-22 2 -20 5 2 3 -35 5 -81 6 -45 0 -81 -3 -78 -8 9 -13 -4 -9 -20 8 -9 8 -16
11 -16 5 0 -6 -24 -9 -65 -6 -40 3 -63 1 -60 -5 3 -6 -1 -7 -9 -4 -9 3 -16 11
-16 18 0 8 -2 8 -8 0 -4 -6 -23 -11 -42 -9 -19 1 -40 -2 -45 -6 -6 -4 -19 -1
-29 7 -14 10 -16 14 -5 14 9 0 10 3 3 8 -15 10 -25 42 -14 42 6 0 10 -5 10
-12 0 -6 3 -8 7 -5 3 4 -2 15 -11 26 -15 16 -15 21 -3 32 11 11 12 16 1 27
-14 13 -8 46 6 37 5 -3 12 0 16 6 4 7 3 9 -4 5 -6 -3 -13 -2 -17 4 -4 6 -12 7
-18 3 -7 -3 -5 2 4 13 9 10 14 25 11 33 -2 7 2 17 9 22 10 6 11 9 2 9 -7 0
-13 7 -13 16 0 8 5 12 11 9 6 -4 5 3 -3 14 -11 18 -11 23 2 31 8 5 10 10 4 10
-7 0 -14 9 -17 20 -3 11 -1 20 4 20 5 0 9 -5 9 -12 0 -6 3 -8 7 -5 3 4 -1 15
-11 26 -16 17 -16 20 -1 35 9 9 12 16 7 16 -17 0 -22 29 -7 44 13 13 12 15 -7
22 -18 5 -19 8 -5 15 9 6 14 16 10 25 -3 9 0 20 8 25 10 6 10 9 2 9 -7 0 -13
7 -13 16 0 8 5 12 11 9 6 -4 5 3 -3 14 -11 18 -11 23 2 31 8 5 10 10 4 10 -7
0 -14 9 -17 20 -6 22 8 28 16 8 2 -7 4 -1 3 14 -1 19 -4 24 -13 17 -8 -7 -10
-5 -6 10 3 12 10 21 15 21 5 0 3 7 -6 15 -16 17 -11 45 8 45 6 1 0 7 -14 15
-14 8 -19 14 -12 15 9 0 12 11 10 33 -3 28 0 32 22 33 14 1 33 5 43 9 10 4 17
3 17 -5 0 -6 5 -8 10 -5 6 4 8 10 6 14 -7 10 32 7 41 -4z m403 11 c0 -2 -7 -7
-16 -10 -8 -3 -12 -2 -9 4 6 10 25 14 25 6z m160 0 c0 -2 -7 -7 -16 -10 -8 -3
-12 -2 -9 4 6 10 25 14 25 6z m160 0 c0 -2 -7 -7 -16 -10 -8 -3 -12 -2 -9 4 6
10 25 14 25 6z m160 0 c0 -2 -7 -7 -16 -10 -8 -3 -12 -2 -9 4 6 10 25 14 25 6z
m955 -56 c3 -5 1 -10 -4 -10 -6 0 -11 5 -11 10 0 6 2 10 4 10 3 0 8 -4 11 -10z
m170 -339 c3 -5 2 -12 -3 -15 -5 -3 -9 1 -9 9 0 17 3 19 12 6z m-226 -105 c0
-7 -2 -6 -6 2 -2 6 -8 10 -12 8 -4 -3 -8 1 -8 9 0 11 4 12 14 4 7 -6 13 -17
12 -23z m131 -279 c0 -2 -12 -14 -27 -28 -24 -22 -23 -11 2 18 9 11 25 17 25
10z m-1670 -313 c0 3 11 1 25 -4 15 -6 26 -6 30 1 4 6 13 6 23 0 10 -6 24 -5
36 1 15 8 21 8 24 -1 3 -9 8 -9 20 1 13 11 14 11 7 -2 -7 -12 -6 -13 6 -3 9 7
20 8 29 3 8 -5 22 -4 34 2 15 8 21 8 24 -1 3 -9 8 -9 20 1 13 11 14 11 7 -2
-8 -13 -7 -13 8 -1 11 8 17 9 17 3 0 -6 7 -9 15 -6 8 4 12 11 8 18 -3 6 3 3
14 -7 14 -12 23 -15 28 -8 4 7 12 8 23 2 10 -6 24 -5 36 1 15 8 21 8 24 -1 3
-9 8 -9 20 1 13 11 14 11 7 -2 -7 -12 -6 -13 6 -3 9 7 20 8 29 3 8 -5 22 -4
34 2 15 8 21 8 24 -1 3 -9 8 -9 20 1 13 11 14 11 7 -2 -8 -13 -7 -13 8 -1 11
8 17 9 17 3 0 -6 7 -9 15 -6 8 4 12 11 8 18 -4 8 -2 8 7 -1 7 -6 19 -9 26 -6
8 3 14 0 14 -7 0 -9 4 -9 17 1 14 12 16 12 8 0 -6 -10 -4 -12 6 -6 19 12 49
14 49 3 0 -5 9 -4 20 2 15 8 20 8 20 -1 0 -8 5 -7 17 2 13 11 17 11 21 1 3
-10 7 -10 20 0 13 11 14 11 7 -2 -8 -13 -7 -13 8 -1 11 8 17 9 17 3 0 -6 7 -9
15 -6 8 4 13 10 10 14 -3 5 4 6 15 3 11 -3 17 -10 14 -15 -4 -6 3 -5 14 1 14
8 23 8 27 1 5 -8 11 -8 20 0 9 7 21 7 39 0 15 -5 43 -10 62 -10 20 0 34 -5 35
-12 0 -9 2 -9 6 1 4 9 7 10 12 2 4 -6 24 -12 44 -13 20 -1 34 -5 32 -9 -3 -4
2 -10 11 -13 10 -4 13 -2 9 7 -4 6 1 3 9 -7 9 -11 16 -14 16 -7 0 7 5 9 10 6
6 -4 8 -11 5 -16 -3 -5 2 -6 11 -2 13 5 15 3 9 -8 -7 -12 -6 -12 7 -1 14 11
18 10 30 -5 7 -10 20 -19 28 -21 29 -5 59 -25 53 -35 -4 -7 1 -8 12 -3 16 6
16 4 4 -10 -13 -16 -12 -16 10 -5 13 7 21 9 18 4 -3 -5 -2 -15 4 -23 7 -13 9
-13 9 0 1 9 5 6 10 -7 5 -13 16 -23 25 -23 8 0 15 -7 15 -16 0 -8 5 -12 10 -9
9 6 11 1 14 -35 1 -8 9 -14 19 -12 10 2 17 -4 17 -13 0 -10 5 -13 12 -9 7 5 8
3 2 -7 -14 -22 -13 -37 2 -50 8 -6 11 -16 7 -22 -3 -6 -1 -7 6 -3 8 6 9 12 2
20 -6 7 -7 17 -3 21 4 5 2 5 -4 2 -6 -3 -11 0 -11 8 0 11 4 12 14 4 7 -6 11
-15 8 -19 -3 -4 2 -13 10 -20 12 -10 12 -15 -2 -36 -14 -22 -11 -28 10 -25 4
0 7 -13 7 -30 0 -21 -4 -28 -12 -23 -7 4 -3 -4 10 -18 17 -19 20 -28 11 -33
-8 -5 -10 -4 -5 3 4 7 2 12 -4 12 -8 0 -10 -9 -6 -26 6 -21 4 -25 -8 -21 -12
5 -13 2 -6 -19 8 -19 7 -24 -3 -19 -6 4 -3 -1 8 -11 17 -14 17 -16 3 -11 -10
4 -18 2 -18 -4 0 -6 -5 -7 -10 -4 -6 4 -7 11 -4 17 4 7 2 8 -5 4 -7 -5 -9 -12
-3 -19 14 -18 11 -49 -4 -43 -8 3 -11 0 -7 -9 3 -8 10 -12 16 -8 6 3 7 1 3 -5
-4 -6 -14 -8 -24 -5 -9 3 -14 3 -10 -2 4 -4 0 -14 -10 -22 -11 -10 -12 -12 -2
-8 10 4 9 2 -2 -8 -10 -8 -15 -16 -12 -19 2 -3 -2 -8 -10 -11 -11 -4 -13 -1
-9 11 4 13 2 12 -10 -3 -19 -23 -22 -39 -5 -29 7 5 8 3 3 -5 -4 -7 -16 -11
-26 -8 -11 3 -17 1 -14 -3 3 -5 -15 -21 -40 -35 -25 -15 -45 -29 -45 -32 0 -2
5 -1 12 3 7 4 8 3 4 -5 -6 -9 -12 -9 -24 1 -10 7 -14 9 -10 4 3 -4 -1 -16 -10
-25 -13 -13 -21 -15 -31 -7 -12 9 -13 8 -6 -3 6 -11 4 -13 -10 -7 -14 5 -16 4
-7 -7 10 -11 6 -13 -18 -12 -17 1 -30 -2 -30 -6 0 -5 -10 -13 -21 -20 -12 -6
-19 -7 -16 -2 4 5 0 10 -8 10 -8 0 -13 -5 -12 -10 1 -6 -10 -11 -25 -11 -14
-1 -30 -4 -34 -8 -4 -5 -22 -8 -40 -8 -27 0 -32 -3 -28 -17 5 -16 4 -16 -6 0
-9 14 -15 16 -26 6 -10 -8 -14 -8 -14 0 0 7 -8 8 -26 1 -14 -6 -30 -8 -35 -4
-5 3 -9 -1 -9 -8 0 -9 -3 -9 -10 2 -8 13 -10 13 -10 1 0 -11 -4 -9 -14 5 -14
18 -15 18 -21 2 -5 -13 -12 -15 -23 -9 -10 6 -24 5 -35 -1 -14 -7 -17 -7 -13
1 4 6 2 11 -3 11 -6 0 -11 -6 -12 -12 0 -10 -2 -10 -6 0 -6 15 -33 16 -33 0 0
-6 -6 -3 -14 8 -14 18 -15 18 -21 2 -5 -13 -12 -15 -23 -9 -10 6 -24 5 -35 -1
-14 -7 -17 -7 -13 1 4 6 2 11 -3 11 -6 0 -11 -6 -12 -12 0 -7 -2 -8 -5 -3 -2
6 -38 9 -81 8 -43 0 -84 4 -90 9 -9 7 -15 6 -19 -6 -4 -11 -11 -13 -22 -7 -10
6 -24 5 -35 -1 -14 -7 -17 -7 -13 1 4 6 2 11 -3 11 -6 0 -11 -5 -11 -12 0 -6
-6 -3 -14 8 -14 18 -15 18 -21 2 -5 -13 -12 -15 -23 -9 -10 6 -24 5 -35 -1
-14 -7 -17 -7 -13 1 4 6 2 11 -3 11 -6 0 -11 -5 -11 -12 0 -6 -6 -3 -14 8 -14
18 -15 18 -21 2 -4 -10 -12 -15 -17 -11 -6 3 -52 6 -102 6 -50 0 -97 4 -103 9
-9 7 -15 5 -19 -6 -4 -11 -11 -13 -23 -7 -10 6 -24 5 -35 -1 -14 -8 -17 -7
-12 1 4 6 2 11 -3 11 -6 0 -11 -5 -11 -12 0 -6 -6 -3 -14 8 -14 18 -15 18 -21
2 -5 -13 -12 -15 -23 -9 -10 6 -24 5 -35 -1 -14 -7 -17 -7 -13 1 4 6 2 11 -3
11 -6 0 -11 -5 -11 -12 0 -6 -6 -3 -14 8 -14 18 -15 18 -21 2 -4 -10 -11 -15
-17 -12 -14 9 -68 11 -68 3 0 -4 -17 0 -37 9 -28 11 -38 22 -38 37 0 16 5 21
15 17 12 -5 13 -3 4 9 -6 8 -14 22 -18 33 -5 14 -3 17 11 12 16 -6 16 -5 -1
12 -15 18 -15 21 -2 35 10 9 12 17 5 19 -18 6 -19 58 -1 58 14 0 14 2 -1 13
-19 14 -13 61 7 50 6 -3 6 0 -1 8 -7 7 -13 22 -13 34 0 12 6 27 13 34 10 11
10 13 0 7 -12 -7 -18 5 -14 28 1 4 -4 15 -11 24 -7 9 -8 13 -2 9 6 -4 20 3 30
16 16 18 16 19 2 8 -15 -11 -18 -11 -19 0 -1 8 0 19 1 24 2 6 2 20 2 33 -1 12
3 22 9 22 5 0 7 5 4 10 -4 6 -10 8 -14 5 -8 -4 -8 32 0 65 3 9 -2 14 -10 12
-12 -3 -12 -1 0 14 8 9 13 25 11 36 -2 10 2 18 8 18 6 0 8 5 5 10 -4 6 -10 8
-14 5 -8 -4 -8 32 0 65 3 9 -2 14 -10 12 -12 -3 -12 -1 0 14 8 9 13 25 11 36
-2 10 3 18 10 18 9 0 9 3 2 8 -14 10 -26 42 -15 42 5 0 12 -6 15 -12 2 -7 4
-3 2 9 -1 12 -6 26 -11 30 -4 5 -5 1 0 -7 5 -8 4 -12 0 -7 -12 10 -14 47 -3
47 5 0 6 5 3 10 -3 6 -1 10 5 10 6 0 9 4 6 8 -3 5 1 9 9 9 8 0 12 -5 8 -10 -3
-5 4 -4 15 2 11 6 23 11 27 11 3 0 3 -5 -1 -11 -4 -7 2 -6 17 1 18 10 24 10
27 1 3 -9 8 -9 20 1 13 11 14 11 7 -1 -6 -10 -4 -12 6 -6 19 12 49 14 49 3 0
-5 9 -4 20 2 15 8 20 8 20 -1 0 -8 5 -7 17 2 13 11 17 11 21 1 3 -10 7 -10 20
0 13 11 14 11 7 -2 -8 -13 -7 -13 8 -1 11 8 17 9 17 3 0 -6 7 -9 15 -6 8 4 12
11 8 18 -4 6 1 5 10 -3 9 -7 17 -11 17 -7z m1651 -31 c13 -17 13 -17 -6 -3
-11 8 -22 16 -24 17 -2 2 0 3 6 3 6 0 17 -8 24 -17z m-2264 -150 c-4 -3 -2
-11 3 -18 7 -8 5 -12 -4 -12 -8 0 -12 7 -11 16 5 22 4 21 12 21 3 0 3 -3 0 -7z
m-3 -58 c-4 -9 0 -15 7 -15 11 0 11 -2 -1 -10 -21 -13 -36 5 -20 25 16 19 21
19 14 0z m-1 -182 c-5 -12 -3 -14 8 -8 12 8 12 6 0 -8 -17 -22 -19 -21 -16 6
3 25 3 27 10 27 2 0 1 -7 -2 -17z m2307 13 c0 -2 -8 -10 -17 -17 -16 -13 -17
-12 -4 4 13 16 21 21 21 13z m-2306 -67 c-3 -6 0 -15 7 -20 10 -6 7 -8 -9 -6
-25 1 -27 8 -10 25 15 15 21 16 12 1z m-1 -124 c-3 -9 1 -15 8 -15 11 0 11 -2
-1 -10 -20 -13 -37 5 -22 23 7 8 8 18 4 22 -4 5 -2 5 5 1 7 -4 10 -13 6 -21z
m2448 -198 c-10 -9 -11 -8 -5 6 3 10 9 15 12 12 3 -3 0 -11 -7 -18z m-2186
-217 c3 -6 -1 -7 -9 -4 -18 7 -21 14 -7 14 6 0 13 -4 16 -10z m-261 -62 c-4
-6 -1 -14 6 -18 8 -5 7 -9 -5 -13 -9 -4 -13 -3 -10 3 3 6 1 10 -6 10 -8 0 -9
3 0 13 6 8 7 18 3 22 -4 5 -1 5 6 1 7 -4 9 -12 6 -18z"/>
<path d="M4836 3972 c-3 -5 1 -9 9 -9 8 0 12 4 9 9 -3 4 -7 8 -9 8 -2 0 -6 -4
-9 -8z"/>
<path d="M3430 3961 c0 -6 4 -12 8 -15 5 -3 9 1 9 9 0 8 -4 15 -9 15 -4 0 -8
-4 -8 -9z"/>
<path d="M5106 3188 c3 -5 10 -6 15 -3 13 9 11 12 -6 12 -8 0 -12 -4 -9 -9z"/>
<path d="M3430 2159 c0 -5 5 -7 10 -4 6 3 10 8 10 11 0 2 -4 4 -10 4 -5 0 -10
-5 -10 -11z"/>
<path d="M1461 4158 c-1 -10 -6 -18 -12 -18 -5 0 -7 5 -3 12 5 7 3 8 -5 4 -7
-5 -10 -14 -7 -22 3 -8 1 -14 -4 -14 -6 0 -10 -5 -10 -11 0 -5 6 -7 13 -3 8 5
8 2 -2 -9 -7 -9 -21 -17 -30 -17 -14 0 -14 -2 -1 -10 13 -8 12 -10 -4 -10 -15
0 -17 -3 -9 -11 8 -8 3 -23 -20 -55 -17 -24 -34 -44 -39 -44 -4 0 -4 -7 -1
-17 5 -12 3 -14 -7 -8 -10 6 -12 4 -7 -11 7 -18 6 -18 -9 1 l-16 20 4 -20 c2
-11 7 -23 13 -27 5 -4 6 -10 2 -14 -3 -4 -15 -1 -24 7 -16 13 -17 12 -4 -3 13
-17 8 -23 -13 -19 -5 1 -3 -6 5 -15 12 -16 12 -17 -3 -11 -13 4 -15 2 -11 -11
6 -15 5 -16 -12 -2 -18 15 -18 14 0 -13 17 -26 17 -27 0 -20 -14 5 -17 3 -12
-10 3 -9 1 -19 -5 -23 -7 -4 -8 -3 -4 4 12 19 2 14 -18 -10 -15 -17 -15 -20
-3 -15 11 4 14 2 10 -9 -3 -8 -11 -13 -18 -10 -8 3 -10 -4 -7 -20 2 -14 0 -24
-7 -24 -7 0 -9 5 -5 12 5 7 3 8 -5 4 -7 -5 -10 -14 -7 -22 3 -8 1 -14 -5 -14
-6 0 -7 -4 -4 -10 3 -5 -1 -10 -10 -10 -9 0 -13 -5 -10 -10 4 -6 11 -7 17 -4
7 4 8 2 4 -5 -4 -6 -12 -9 -17 -6 -5 4 -9 -3 -9 -15 0 -12 -4 -18 -10 -15 -5
3 -10 -1 -10 -9 0 -9 -6 -16 -12 -16 -8 0 -9 -3 -3 -8 6 -4 11 -13 13 -21 3
-12 0 -12 -13 -1 -13 11 -15 10 -9 -3 3 -10 -2 -20 -17 -27 -17 -10 -19 -14
-8 -21 10 -6 10 -9 2 -9 -14 0 -45 -55 -36 -63 3 -4 -2 -9 -11 -13 -9 -3 -13
-10 -10 -15 7 -13 -15 -40 -27 -33 -5 3 -6 -3 -2 -13 6 -16 5 -17 -12 -3 -17
14 -18 14 -7 -7 8 -14 9 -24 2 -28 -6 -4 -8 -11 -5 -16 3 -5 -2 -6 -11 -2 -13
5 -15 3 -9 -7 6 -10 4 -12 -10 -6 -15 5 -16 4 -5 -9 10 -12 10 -15 0 -15 -10
0 -10 -3 0 -15 11 -13 10 -14 -5 -9 -14 6 -16 4 -10 -6 6 -10 4 -12 -7 -7 -12
4 -14 1 -10 -15 3 -14 1 -19 -6 -14 -6 4 -11 -1 -11 -11 1 -30 -7 -54 -17 -54
-5 -1 -17 -5 -27 -11 -14 -7 -16 -13 -8 -22 8 -10 5 -23 -13 -49 -13 -19 -21
-39 -18 -43 4 -4 0 -5 -9 -2 -9 4 -16 1 -16 -8 0 -7 4 -11 9 -8 4 3 5 -2 2
-11 -4 -8 -13 -14 -22 -13 -8 2 -17 -4 -19 -12 -4 -13 -3 -13 7 0 10 13 11 12
6 -3 -3 -10 -6 -21 -6 -23 0 -3 -4 -3 -8 0 -4 3 -8 -7 -8 -22 1 -20 -3 -26
-16 -24 -9 1 -20 -3 -24 -9 -4 -8 -3 -9 4 -5 7 4 12 2 12 -3 0 -6 -8 -11 -17
-11 -15 0 -16 -2 -3 -10 11 -7 11 -10 2 -10 -7 0 -10 -4 -7 -10 6 -9 -8 -14
-28 -11 -5 1 -6 -3 -2 -9 3 -6 11 -7 17 -4 7 5 8 2 4 -5 -5 -7 -14 -10 -22 -7
-12 4 -12 2 -4 -14 10 -19 6 -24 -12 -21 -5 0 -7 -2 -7 -7 3 -20 -2 -32 -12
-26 -8 4 -9 -1 -4 -17 7 -21 6 -22 -9 -10 -15 13 -16 12 -7 -12 9 -22 8 -25
-6 -20 -12 5 -14 3 -8 -7 6 -10 4 -12 -10 -6 -15 5 -16 4 -5 -9 10 -12 10 -15
-3 -15 -9 0 -19 -5 -23 -12 -5 -7 -3 -8 6 -3 9 5 11 3 6 -6 -3 -8 -9 -21 -12
-30 -3 -9 -17 -23 -31 -30 -21 -11 -22 -14 -8 -19 16 -6 16 -8 2 -22 -9 -9
-13 -19 -9 -24 4 -5 -2 -2 -12 6 -18 14 -19 14 -8 -7 11 -20 10 -21 -9 -18
-12 3 -19 2 -16 -2 4 -3 2 -14 -3 -24 -7 -12 -6 -19 3 -22 8 -4 7 -6 -4 -6 -8
-1 -25 -14 -37 -30 -19 -27 -20 -30 -4 -36 16 -6 16 -7 0 -19 -10 -7 -14 -17
-10 -22 4 -4 -2 -2 -13 6 -11 8 -17 10 -13 6 4 -5 2 -16 -5 -24 -8 -11 -8 -14
0 -9 15 9 11 -16 -6 -37 -7 -9 -19 -16 -26 -16 -14 0 -15 -17 -2 -37 5 -9 3
-11 -6 -7 -8 3 -18 0 -23 -7 -4 -7 -3 -10 4 -5 6 3 14 2 17 -4 4 -6 1 -9 -7
-8 -7 2 -12 -4 -10 -12 1 -10 -3 -9 -14 5 -16 20 -16 20 -9 -4 5 -16 4 -21 -4
-17 -7 5 -9 1 -5 -8 4 -9 1 -16 -6 -16 -7 0 -10 -6 -7 -14 6 -16 -16 -40 -26
-29 -13 12 -7 -13 6 -26 10 -11 9 -13 0 -7 -7 4 -13 2 -13 -4 0 -6 -4 -9 -9
-5 -5 3 -13 0 -17 -6 -4 -8 -3 -9 4 -5 22 14 12 -22 -11 -41 -13 -10 -22 -24
-19 -32 3 -9 0 -11 -8 -6 -9 6 -9 3 0 -15 10 -19 10 -21 -8 -11 -14 8 -19 7
-20 -5 -1 -7 -3 -21 -4 -29 -1 -8 -5 -15 -10 -15 -5 0 -6 -4 -3 -10 3 -5 -2
-10 -12 -10 -15 0 -16 -2 -3 -10 11 -7 11 -10 2 -10 -8 0 -10 -5 -6 -12 6 -10
5 -10 -7 -1 -12 10 -15 8 -15 -7 0 -10 5 -18 11 -17 5 1 9 -3 8 -8 -1 -6 9
-11 23 -11 13 0 24 4 24 8 0 5 9 4 19 -2 14 -7 21 -6 24 3 3 6 6 8 6 2 1 -6
30 -9 73 -7 98 4 98 4 91 15 -4 7 1 8 13 3 10 -4 15 -4 11 0 -4 4 -1 14 6 23
10 14 10 14 -4 4 -13 -10 -16 -10 -16 1 0 9 9 13 24 11 17 -2 21 1 13 10 -8 9
-6 14 5 19 12 4 14 10 5 25 -8 17 -7 19 9 16 15 -3 18 1 14 18 -4 18 -3 19 6
7 9 -12 11 -10 11 12 0 15 5 30 11 33 6 4 8 14 4 22 -5 14 -3 14 12 2 14 -12
16 -12 8 0 -6 10 -4 13 6 9 10 -4 15 1 15 13 0 14 -3 16 -16 6 -8 -6 -7 -2 4
10 10 13 23 20 29 16 6 -3 7 -1 3 5 -4 6 -14 9 -24 6 -9 -3 -6 1 8 9 14 9 28
13 32 11 3 -2 10 1 14 7 4 7 3 9 -4 5 -6 -3 -13 -2 -17 4 -3 5 -1 10 5 10 6 0
8 5 5 10 -3 6 -2 10 4 10 6 0 8 7 5 15 -4 11 1 15 17 15 20 0 21 2 9 11 -12 9
-10 10 8 6 17 -4 21 -2 14 6 -12 16 -11 48 1 40 7 -4 8 1 3 12 -5 14 -4 15 7
7 10 -8 13 -6 14 11 1 12 7 23 13 25 5 2 10 11 10 19 0 10 6 13 17 9 15 -5 15
-4 -1 9 -18 13 -15 19 6 16 11 -1 20 38 12 50 -4 8 -3 9 4 5 7 -4 12 -2 12 4
0 6 4 8 10 5 5 -3 7 0 4 8 -3 8 0 18 7 23 8 4 10 3 5 -4 -10 -17 -1 -15 14 4
8 8 9 14 4 12 -5 -2 -9 2 -9 7 0 6 3 9 7 8 4 -2 5 6 3 17 -2 10 4 25 13 32 9
7 13 8 9 2 -3 -6 0 -11 7 -11 9 0 12 12 11 36 -2 20 -1 30 2 23 4 -10 8 -10
21 0 13 11 14 11 7 -2 -8 -13 -7 -13 8 -1 13 10 20 11 30 2 8 -6 17 -8 21 -4
10 10 48 14 42 5 -3 -5 1 -9 9 -9 8 0 12 4 9 9 -8 13 41 9 55 -4 8 -7 11 -8 8
-2 -4 7 6 11 25 12 24 1 28 -2 18 -8 -8 -6 -10 -10 -4 -10 6 0 14 3 18 7 12
12 80 11 95 -1 11 -8 13 -8 8 0 -4 7 5 11 25 12 24 1 28 -2 18 -8 -8 -6 -10
-10 -4 -10 6 0 14 3 18 7 12 12 80 11 95 -1 11 -8 13 -8 8 0 -4 7 5 11 25 12
24 1 28 -2 18 -8 -8 -6 -10 -10 -4 -10 6 0 14 3 18 7 12 12 80 11 95 -1 11 -8
13 -8 8 0 -4 7 5 11 25 12 24 1 28 -2 18 -8 -8 -6 -10 -10 -4 -10 6 0 14 3 18
7 10 11 115 12 122 2 3 -5 11 -6 17 -2 18 11 49 14 43 5 -3 -5 1 -9 9 -9 8 0
12 4 9 9 -4 5 12 7 36 3 33 -5 40 -3 34 7 -4 7 3 4 16 -7 13 -11 20 -14 16 -7
-4 7 -2 12 6 12 8 0 20 -6 27 -12 8 -7 11 -8 8 -2 -4 7 6 11 25 12 24 1 28 -2
18 -8 -9 -6 -10 -10 -3 -10 6 0 14 4 17 9 3 4 30 7 61 5 41 -2 54 0 49 9 -4 7
3 3 16 -8 13 -11 21 -15 17 -9 -8 14 50 17 59 3 3 -5 11 -6 17 -2 18 11 49 14
43 5 -3 -5 1 -9 9 -9 8 0 12 4 9 9 -8 12 69 5 78 -7 5 -6 8 -5 8 2 0 15 50 13
50 -2 0 -5 5 -3 10 5 6 9 10 10 10 3 0 -6 8 -14 18 -17 21 -7 58 -65 54 -85
-2 -7 1 -10 7 -7 5 4 13 1 17 -5 4 -8 3 -9 -4 -5 -7 4 -12 2 -12 -3 0 -6 5
-11 10 -11 6 0 9 -3 9 -7 -4 -22 3 -35 15 -30 10 4 12 0 8 -15 -3 -13 -1 -19
5 -15 6 4 14 0 17 -9 3 -8 2 -12 -3 -9 -5 3 -13 0 -17 -6 -4 -8 -3 -9 4 -5 7
4 12 1 12 -8 0 -9 7 -16 16 -16 10 0 14 -6 11 -15 -4 -8 -2 -17 3 -20 6 -4 10
-1 10 6 0 7 3 9 6 6 4 -4 1 -14 -6 -22 -7 -9 -9 -15 -4 -14 21 4 35 -2 29 -11
-3 -5 -1 -10 6 -10 10 0 10 -3 1 -12 -7 -7 -12 -17 -12 -22 0 -6 4 -5 9 3 11
18 32 5 24 -15 -4 -10 5 -25 22 -40 16 -13 23 -24 16 -24 -7 0 -9 -5 -6 -10 4
-6 11 -8 16 -5 5 4 6 -2 2 -11 -5 -13 -3 -16 9 -11 12 4 15 0 13 -19 -2 -17 2
-24 11 -20 8 3 11 0 7 -10 -3 -8 -1 -20 5 -27 6 -6 10 -16 10 -22 0 -5 6 -11
14 -13 9 -2 8 0 -2 8 -13 10 -13 11 0 7 8 -2 14 -12 12 -22 -2 -12 1 -15 10
-9 10 6 10 5 2 -7 -9 -11 -9 -17 1 -26 7 -6 16 -9 19 -6 3 4 6 -1 6 -11 0 -10
5 -14 11 -10 8 5 8 1 0 -14 -16 -29 -14 -37 6 -21 15 13 15 12 4 -8 -10 -20
-9 -22 6 -16 12 5 15 2 10 -10 -6 -16 19 -45 30 -33 3 3 16 -2 27 -11 20 -17
20 -17 6 1 -14 18 -14 19 7 8 16 -9 23 -9 26 1 3 6 6 8 6 2 1 -6 29 -9 68 -8
118 3 143 6 134 18 -5 5 -7 18 -6 27 2 11 -2 15 -13 11 -10 -4 -13 -2 -8 5 4
7 2 12 -3 12 -6 0 -11 7 -11 16 0 9 -5 13 -12 9 -7 -4 -4 1 7 11 17 14 17 16
3 11 -12 -4 -18 -1 -18 8 0 8 -4 15 -10 15 -5 0 -10 7 -10 15 0 8 -4 15 -9 15
-11 0 -9 19 3 40 5 8 6 12 1 8 -4 -4 -15 -2 -24 5 -14 11 -14 10 -2 -5 7 -10
10 -18 5 -18 -5 0 -16 13 -25 29 -12 21 -14 32 -6 40 8 8 6 11 -6 11 -9 0 -17
7 -17 16 0 9 5 12 12 8 7 -4 8 -3 4 5 -6 9 -11 9 -22 0 -15 -12 -16 -9 -17 38
0 15 -4 20 -16 15 -14 -5 -14 -3 -3 10 10 13 10 18 1 24 -8 4 -9 3 -5 -4 4 -7
2 -12 -3 -12 -6 0 -11 9 -11 21 0 13 -4 18 -12 13 -8 -5 -7 0 2 11 9 11 10 16
3 11 -13 -7 -17 4 -13 33 2 13 0 13 -16 0 -11 -8 -15 -9 -10 -1 4 6 2 12 -3
12 -6 0 -11 5 -11 11 0 5 6 7 13 3 8 -6 8 -3 -1 9 -8 9 -10 22 -6 28 4 7 3 9
-3 6 -6 -4 -18 0 -28 7 -14 10 -15 15 -5 21 9 6 11 4 5 -5 -5 -9 -4 -11 3 -6
15 9 15 11 -5 27 -14 12 -16 12 -8 0 5 -10 4 -12 -3 -7 -7 4 -10 20 -7 39 6
29 5 30 -8 13 -11 -15 -16 -16 -22 -6 -5 9 -4 11 3 6 7 -4 12 -2 12 3 0 10
-14 15 -32 12 -4 0 -3 10 2 23 7 19 5 28 -10 41 -13 12 -19 13 -22 4 -3 -9 -7
-7 -11 5 -4 10 -3 15 3 11 6 -3 10 -1 10 4 0 6 -4 11 -10 11 -5 0 -10 9 -10
20 0 11 -5 20 -11 20 -5 0 -7 5 -4 10 3 6 -1 10 -11 10 -13 0 -14 3 -5 14 8
10 9 16 1 21 -6 3 -8 11 -5 16 3 5 -1 6 -9 3 -11 -4 -16 0 -16 10 0 9 6 16 13
16 8 0 7 3 -3 10 -9 5 -19 5 -27 -1 -9 -8 -11 -3 -8 21 3 25 0 33 -15 37 -11
3 -20 14 -20 24 0 11 -5 19 -11 19 -6 0 -9 7 -5 15 3 8 1 15 -5 15 -6 0 -8 4
-5 9 3 5 -3 11 -14 14 -14 3 -20 14 -20 32 0 18 -4 24 -12 19 -9 -5 -9 -2 1 9
12 15 11 17 -10 18 -22 0 -23 1 -4 9 17 7 17 9 3 9 -10 1 -18 6 -18 12 0 5 -6
7 -12 3 -10 -5 -10 -4 -1 6 9 10 8 16 -6 29 -10 10 -11 12 -1 6 13 -8 13 -8 3
6 -7 9 -10 19 -6 23 4 4 -1 4 -11 0 -14 -5 -17 -4 -12 4 4 7 2 12 -3 12 -6 0
-10 3 -9 8 1 4 -6 19 -16 34 -10 15 -14 33 -10 40 4 7 4 10 -1 6 -4 -4 -14 -1
-21 7 -19 18 -18 25 4 19 9 -3 4 3 -11 13 -19 12 -26 24 -23 36 3 13 0 17 -10
13 -14 -5 -18 5 -15 33 2 8 -2 10 -10 5 -9 -5 -10 -2 -6 9 4 11 1 17 -8 17 -7
0 -17 5 -21 12 -5 8 -1 9 12 5 18 -7 17 -6 -1 10 -12 10 -27 27 -35 38 -14 19
-14 19 3 6 14 -11 20 -12 30 -2 9 10 8 11 -5 6 -11 -4 -18 -2 -18 4 0 6 -10
12 -22 12 -18 1 -19 2 -5 6 9 2 15 9 11 14 -3 5 -11 6 -17 2 -8 -5 -8 -2 1 9
13 17 5 29 -31 41 -15 6 -16 10 -6 28 8 15 8 19 0 15 -6 -4 -11 -2 -11 4 0 6
-5 8 -10 5 -6 -4 -10 -3 -9 2 4 26 -2 44 -13 37 -10 -6 -10 -5 0 8 10 12 9 18
-3 28 -8 7 -12 17 -8 24 4 6 -1 5 -10 -3 -15 -12 -17 -12 -10 4 5 14 3 17 -8
13 -11 -4 -15 1 -13 24 1 21 -2 28 -11 24 -9 -3 -12 3 -10 20 2 20 0 22 -12
13 -11 -10 -12 -8 -7 6 5 13 4 16 -4 11 -7 -4 -12 -2 -12 3 0 6 5 11 12 11 6
0 4 6 -7 13 -11 9 -15 19 -10 27 6 10 4 12 -7 7 -11 -4 -15 0 -14 11 2 9 -3
23 -11 31 -8 7 -12 20 -8 28 3 10 1 13 -7 10 -7 -2 -19 2 -26 9 -10 11 -10 14
0 14 10 0 10 2 -1 9 -11 7 -11 9 0 14 9 4 8 6 -5 6 -13 1 -17 6 -13 20 3 12 0
18 -7 15 -6 -2 -17 5 -24 17 -8 12 -9 18 -3 14 8 -4 7 2 0 19 -7 14 -15 23
-19 21 -11 -7 -22 24 -13 37 3 7 1 8 -5 4 -8 -5 -12 2 -12 19 0 15 -4 24 -10
20 -5 -3 -11 -1 -11 4 -2 12 -5 26 -9 39 -1 4 -2 10 -1 14 0 4 -7 4 -17 1 -15
-6 -15 -5 -3 10 12 15 12 17 -2 12 -8 -4 -18 -1 -23 6 -4 8 -3 10 5 5 6 -4 4
8 -6 28 -9 20 -18 34 -21 32 -2 -2 2 -15 8 -28 9 -18 7 -17 -15 7 -14 17 -23
23 -19 15 6 -12 4 -13 -7 -2 -16 15 -33 16 -23 1 5 -8 1 -8 -14 0 -25 13 -35
14 -28 2 7 -10 -20 -9 -30 1 -3 4 -17 3 -30 -2 -15 -6 -26 -6 -30 1 -4 8 -9 7
-15 -2 -7 -12 -9 -12 -9 0 0 11 -3 11 -17 0 -15 -12 -16 -12 -8 1 8 13 7 13
-8 1 -14 -11 -17 -11 -17 0 0 12 -2 12 -9 0 -7 -11 -9 -11 -14 0 -4 10 -6 9
-6 -3z m354 -107 c3 -5 2 -12 -3 -15 -5 -3 -9 1 -9 9 0 17 3 19 12 6z m-214
-135 c5 3 9 -1 9 -9 0 -8 7 -17 15 -21 9 -3 12 -12 8 -22 -4 -12 -3 -15 5 -10
8 5 12 -1 12 -18 0 -14 5 -28 10 -31 6 -4 8 -10 5 -14 -2 -5 2 -17 10 -27 8
-10 15 -14 15 -8 0 5 -6 16 -12 24 -7 8 -3 6 9 -4 13 -10 20 -22 18 -26 -3 -4
2 -13 10 -20 11 -9 12 -16 5 -25 -8 -9 -8 -15 0 -20 6 -3 7 -11 4 -17 -4 -7
-2 -8 5 -4 9 6 9 12 -1 24 -12 15 -11 16 5 3 9 -7 17 -24 17 -37 0 -13 4 -24
9 -24 5 0 12 -7 15 -16 6 -15 4 -15 -10 -3 -16 13 -16 12 -3 -8 7 -12 15 -20
18 -18 10 10 39 -38 36 -61 -2 -19 1 -22 10 -14 10 8 15 8 21 -1 4 -8 3 -9 -4
-5 -7 4 -12 2 -12 -3 0 -6 5 -11 11 -11 8 0 7 -5 -1 -15 -11 -13 -10 -14 6 -8
16 6 17 5 6 -9 -10 -13 -10 -18 -1 -24 8 -4 9 -3 5 4 -4 7 -2 12 3 12 6 0 11
-9 11 -20 0 -11 5 -20 11 -20 5 0 7 -5 3 -12 -5 -8 -2 -9 10 -5 14 6 15 4 5
-14 -6 -12 -7 -19 -2 -16 16 10 43 -19 38 -41 -2 -12 1 -22 7 -22 6 0 8 -11 6
-25 -4 -19 -2 -23 7 -15 9 8 14 6 19 -5 3 -9 10 -13 16 -10 6 3 7 -1 4 -9 -3
-9 -11 -16 -18 -17 -6 0 -1 -4 12 -9 12 -5 22 -15 22 -22 0 -9 -3 -9 -10 2 -7
11 -10 12 -10 2 0 -8 9 -16 19 -19 11 -3 22 -12 25 -20 3 -8 1 -11 -4 -8 -6 3
-10 1 -10 -4 0 -6 8 -11 18 -12 10 0 12 -3 5 -6 -10 -3 -9 -8 3 -20 8 -9 13
-23 10 -32 -4 -11 -1 -10 10 4 15 18 16 18 10 1 -4 -12 0 -24 11 -33 16 -13
16 -14 1 -9 -12 3 -15 1 -11 -9 3 -8 9 -12 14 -9 5 3 9 0 9 -6 0 -6 4 -8 10
-5 6 4 7 -1 3 -11 -5 -14 -3 -16 11 -11 9 4 15 3 11 -2 -3 -5 -1 -13 5 -16 8
-5 7 -11 -1 -21 -9 -11 -9 -14 1 -14 9 0 10 -3 1 -14 -9 -11 -6 -12 16 -9 22
4 25 2 13 -6 -11 -8 -12 -11 -2 -11 7 0 10 -4 7 -10 -3 -5 -1 -10 6 -10 10 0
10 -3 1 -12 -13 -13 1 -38 21 -38 6 0 2 7 -9 16 -18 14 -18 15 4 4 19 -9 21
-14 11 -26 -6 -8 -9 -17 -5 -21 3 -3 6 -1 6 5 0 7 4 12 9 12 5 0 8 -14 7 -31
-1 -16 2 -33 7 -36 6 -4 7 0 3 8 -4 8 0 5 8 -5 11 -13 16 -15 16 -6 0 7 3 10
6 7 4 -4 1 -15 -7 -24 -7 -10 -10 -15 -5 -11 4 4 14 2 21 -5 10 -9 9 -14 -4
-25 -9 -7 -10 -10 -2 -6 10 5 12 3 7 -5 -6 -9 -11 -9 -24 1 -12 10 -14 10 -8
1 9 -15 9 -15 -32 -4 -26 8 -34 7 -39 -5 -4 -12 -8 -12 -20 3 -8 10 -12 12 -8
6 3 -7 1 -13 -4 -13 -6 0 -11 5 -11 10 0 7 -6 7 -20 0 -15 -8 -20 -8 -21 2 0
10 -2 10 -6 0 -2 -6 -9 -9 -14 -6 -6 3 -16 1 -24 -6 -10 -8 -15 -8 -20 0 -4 6
-13 9 -21 6 -8 -3 -14 0 -14 7 0 9 -3 8 -9 -1 -12 -19 -15 -19 -36 -2 -17 14
-18 13 -11 -4 7 -20 7 -20 -15 0 -12 10 -19 13 -15 7 4 -7 2 -13 -3 -13 -6 0
-11 5 -11 10 0 7 -6 7 -20 0 -15 -8 -20 -8 -21 2 0 9 -2 10 -5 1 -3 -7 -11
-10 -19 -7 -7 3 -16 0 -20 -6 -5 -8 -10 -8 -20 0 -8 7 -19 9 -25 5 -5 -3 -10
0 -10 7 0 10 -2 10 -9 0 -12 -19 -15 -19 -36 -2 -17 14 -18 13 -11 -4 7 -20 7
-20 -15 0 -12 10 -19 13 -15 7 4 -7 2 -13 -3 -13 -6 0 -11 5 -11 10 0 7 -6 7
-20 0 -15 -8 -20 -8 -21 2 0 9 -2 10 -5 1 -3 -7 -11 -10 -19 -7 -7 3 -16 0
-20 -6 -5 -8 -10 -8 -20 0 -8 7 -19 9 -25 5 -5 -3 -10 0 -10 7 0 10 -2 10 -9
0 -12 -19 -15 -19 -36 -2 -17 14 -18 13 -12 -4 6 -14 4 -16 -5 -8 -17 13 -98
14 -98 1 0 -6 -7 -3 -16 5 -17 18 -28 21 -19 6 3 -5 -1 -10 -10 -10 -10 0 -13
5 -9 13 6 9 5 9 -8 0 -8 -7 -18 -10 -21 -6 -4 3 -13 0 -21 -6 -10 -9 -16 -9
-21 -1 -4 6 -13 9 -21 6 -8 -3 -14 0 -14 7 0 9 -3 8 -9 -1 -12 -19 -15 -19
-36 -2 -17 14 -18 13 -11 -5 6 -16 5 -18 -5 -7 -15 14 -53 17 -44 2 3 -6 -1
-7 -9 -4 -9 3 -14 10 -11 14 3 5 -4 6 -15 3 -11 -3 -17 -10 -13 -17 4 -6 -1
-5 -10 2 -9 8 -21 11 -26 8 -5 -4 -13 -1 -17 5 -4 8 -9 7 -15 -2 -8 -12 -11
-11 -19 1 -6 9 -10 10 -10 3 0 -7 -9 -10 -22 -8 -12 3 -26 -1 -31 -8 -6 -9 -7
-8 -4 3 2 8 -3 21 -12 28 -14 11 -14 11 2 6 13 -5 17 -1 17 16 0 11 5 18 10
15 6 -3 10 -1 10 5 0 6 5 8 13 4 9 -6 9 -4 -1 8 -10 13 -10 18 -1 24 8 5 9 3
4 -6 -5 -8 -4 -11 3 -6 6 4 9 13 6 20 -3 8 0 17 5 21 6 3 8 12 4 18 -5 9 -3 9
8 0 12 -10 15 -8 17 10 4 41 8 56 17 64 4 4 5 2 1 -4 -4 -7 -2 -13 3 -13 10 0
15 14 12 33 0 4 6 7 15 7 8 0 12 5 9 10 -4 6 -11 8 -16 5 -17 -11 -9 2 13 21
22 19 23 19 8 -1 -13 -19 -13 -19 6 -2 16 15 17 19 4 27 -11 7 -11 10 -2 10 8
0 10 5 6 13 -6 9 -5 9 7 0 13 -10 15 -8 13 17 -1 17 2 27 7 24 5 -3 6 -11 3
-17 -4 -7 -3 -8 2 -4 5 5 9 14 9 20 1 7 6 11 12 10 7 -2 9 9 6 27 -2 18 0 30
7 30 6 0 8 5 4 13 -6 9 -4 9 8 -1 14 -12 16 -10 10 10 -5 21 -4 22 13 8 17
-14 18 -14 8 5 -9 15 -8 22 5 33 10 7 11 11 5 7 -20 -10 -15 10 7 30 10 9 19
20 18 24 -2 19 3 32 11 27 8 -5 26 40 23 56 -1 4 6 4 15 1 13 -5 15 -2 10 11
-4 11 -1 19 9 23 13 5 13 7 2 14 -10 7 -8 9 7 10 11 1 24 1 29 0 5 -1 4 5 -4
13 -8 10 -9 16 -2 16 7 0 9 7 5 17 -5 12 -3 14 8 8 12 -7 12 -6 1 7 -10 13
-10 17 3 22 11 4 14 2 9 -6 -5 -7 -3 -8 5 -4 7 5 10 14 7 21 -2 7 2 16 11 19
12 5 13 9 4 20 -14 17 2 32 21 20 7 -4 8 -3 4 4 -4 7 -1 12 6 12 8 1 5 7 -7
17 -16 13 -17 15 -2 10 9 -4 17 -2 17 4 0 6 4 8 9 5 5 -4 7 4 3 16 -4 17 -2
20 13 14 15 -5 16 -4 5 9 -8 10 -9 15 -1 15 6 0 11 7 11 16 0 8 4 13 9 9 5 -3
12 -1 16 5 3 5 1 10 -5 10 -6 0 -8 5 -5 10 4 6 12 7 18 3 8 -4 7 -1 -1 9 -10
13 -10 18 -1 24 8 4 9 3 5 -4 -4 -7 -2 -12 3 -12 6 0 11 3 12 8 0 4 2 18 3 31
2 14 8 27 15 29 9 3 9 8 -1 20 -11 13 -10 14 8 4 16 -8 21 -8 21 1 1 24 8 42
23 55 8 8 10 11 3 8 -6 -4 -14 -2 -17 3 -4 5 5 8 19 6 20 -2 23 0 14 11 -9 11
-8 14 1 14 7 0 10 7 6 16 -3 8 -2 12 4 9 6 -3 10 0 11 7 0 10 2 10 6 0 2 -6 9
-10 14 -6z m-506 -856 c-3 -5 -12 -10 -18 -10 -7 0 -6 4 3 10 19 12 23 12 15
0z m1505 -400 c0 -5 -2 -10 -4 -10 -3 0 -8 5 -11 10 -3 6 -1 10 4 10 6 0 11
-4 11 -10z m-2188 -342 c-7 -7 -12 -8 -12 -2 0 14 12 26 19 19 2 -3 -1 -11 -7
-17z m2415 -563 c0 -8 -4 -12 -9 -9 -5 3 -6 10 -3 15 9 13 12 11 12 -6z"/>
<path d="M1700 3720 c0 -5 5 -10 11 -10 5 0 7 5 4 10 -3 6 -8 10 -11 10 -2 0
-4 -4 -4 -10z"/>
<path d="M1793 3545 c0 -8 4 -12 9 -9 5 3 6 10 3 15 -9 13 -12 11 -12 -6z"/>
<path d="M1905 3340 c3 -5 11 -10 16 -10 6 0 7 5 4 10 -3 6 -11 10 -16 10 -6
0 -7 -4 -4 -10z"/>
<path d="M1175 3200 c-3 -5 -1 -10 4 -10 6 0 11 5 11 10 0 6 -2 10 -4 10 -3 0
-8 -4 -11 -10z"/>
<path d="M2110 2962 c0 -5 7 -9 15 -9 8 0 12 4 9 9 -3 4 -9 8 -15 8 -5 0 -9
-4 -9 -8z"/>
<path d="M3163 4133 c4 -3 1 -13 -6 -22 -11 -14 -10 -14 5 -2 16 12 16 31 1
31 -4 0 -3 -3 0 -7z"/>
<path d="M1357 4010 c-15 -16 -23 -30 -19 -30 5 0 18 14 30 30 13 17 21 30 19
30 -2 0 -16 -13 -30 -30z"/>
<path d="M3168 3993 c7 -3 16 -2 19 1 4 3 -2 6 -13 5 -11 0 -14 -3 -6 -6z"/>
<path d="M3165 3840 c-3 -5 1 -10 10 -10 9 0 13 5 10 10 -3 6 -8 10 -10 10 -2
0 -7 -4 -10 -10z"/>
<path d="M3165 3680 c-3 -5 1 -10 10 -10 9 0 13 5 10 10 -3 6 -8 10 -10 10 -2
0 -7 -4 -10 -10z"/>
<path d="M3165 3520 c-3 -5 1 -10 10 -10 9 0 13 5 10 10 -3 6 -8 10 -10 10 -2
0 -7 -4 -10 -10z"/>
<path d="M976 3362 c-3 -5 1 -9 9 -9 8 0 12 4 9 9 -3 4 -7 8 -9 8 -2 0 -6 -4
-9 -8z"/>
<path d="M3165 3360 c-3 -5 1 -10 10 -10 9 0 13 5 10 10 -3 6 -8 10 -10 10 -2
0 -7 -4 -10 -10z"/>
<path d="M5525 3320 c-3 -5 1 -10 9 -10 9 0 16 5 16 10 0 6 -4 10 -9 10 -6 0
-13 -4 -16 -10z"/>
<path d="M3165 3200 c-3 -5 1 -10 10 -10 9 0 13 5 10 10 -3 6 -8 10 -10 10 -2
0 -7 -4 -10 -10z"/>
<path d="M2405 3020 c-3 -5 -1 -10 4 -10 6 0 11 5 11 10 0 6 -2 10 -4 10 -3 0
-8 -4 -11 -10z"/>
<path d="M776 3008 c3 -5 10 -6 15 -3 13 9 11 12 -6 12 -8 0 -12 -4 -9 -9z"/>
<path d="M2525 2799 c-4 -6 -5 -12 -2 -15 2 -3 7 2 10 11 7 17 1 20 -8 4z"/>
<path d="M3165 2760 c-3 -5 -1 -10 4 -10 6 0 11 5 11 10 0 6 -2 10 -4 10 -3 0
-8 -4 -11 -10z"/>
<path d="M5705 2580 c4 -6 11 -8 16 -5 14 9 11 15 -7 15 -8 0 -12 -5 -9 -10z"/>
<path d="M2406 2441 c-7 -11 22 -36 31 -28 3 4 -2 9 -11 13 -9 3 -13 10 -10
15 3 5 3 9 0 9 -3 0 -7 -4 -10 -9z"/>
<path d="M5736 2442 c-2 -4 0 -14 6 -22 8 -12 9 -11 4 4 -5 14 -2 17 9 12 9
-3 13 -2 10 4 -7 12 -22 13 -29 2z"/>
<path d="M3166 2365 c-9 -26 -7 -32 5 -12 6 10 9 21 6 23 -2 3 -7 -2 -11 -11z"/>
<path d="M336 2214 c-5 -14 -4 -15 9 -4 17 14 19 20 6 20 -5 0 -12 -7 -15 -16z"/>
<path d="M3166 2125 c-9 -26 -7 -32 5 -12 6 10 9 21 6 23 -2 3 -7 -2 -11 -11z"/>
<path d="M2975 1980 c3 -5 8 -10 11 -10 2 0 4 5 4 10 0 6 -5 10 -11 10 -5 0
-7 -4 -4 -10z"/>
<path d="M180 1950 c-9 -6 -10 -10 -3 -10 6 0 15 5 18 10 8 12 4 12 -15 0z"/>
<path d="M5375 1870 c-3 -5 -1 -10 4 -10 6 0 11 5 11 10 0 6 -2 10 -4 10 -3 0
-8 -4 -11 -10z"/>
</g>
</svg>
