<svg xmlns="http://www.w3.org/2000/svg" xmlns:xlink="http://www.w3.org/1999/xlink" aria-hidden="true" role="img" width="1em" height="1em" preserveAspectRatio="xMidYMid meet" viewBox="0 0 24 24"><g fill="none"><g clip-path="url(#clip0)" fill="currentColor"><path d="M5.08 0h1.082v1.069h.99V0h1.082v3.236H7.152V2.153h-.99v1.083H5.081V0z"/><path d="M9.656 1.073h-.952V0h2.987v1.073h-.953v2.163H9.656V1.073z"/><path d="M12.165 0h1.128l.694 1.137L14.68 0h1.128v3.236h-1.077V1.632l-.744 1.151h-.019l-.745-1.15v1.603h-1.058V0z"/><path d="M16.346 0h1.083v2.167h1.52v1.07h-2.603V0z"/><path fill-rule="evenodd" clip-rule="evenodd" d="M5.046 22.072L3 4.717h18L18.953 22.07L11.99 24l-6.944-1.928zm4.137-9.5l-.194-2.18h8.145l.19-2.128H6.664l.574 6.437h7.377l-.247 2.76l-2.374.642h-.002l-2.37-.64l-.152-1.697H7.332l.298 3.342l4.36 1.21l4.367-1.21l.532-5.964l.052-.571H9.183z"/></g><defs><clipPath id="clip0"><path fill="#fff" d="M0 0h24v24H0z"/></clipPath></defs></g></svg>
